<mxfile host="app.diagrams.net" agent="Mozilla/5.0 (Windows NT 10.0; Win64; x64) AppleWebKit/537.36 (KHTML, like Gecko) Chrome/137.0.0.0 Safari/537.36" version="27.1.6">
  <diagram name="ページ1" id="fQ4D2pb2JrHGVdN_IL4y">
    <mxGraphModel dx="417" dy="557" grid="1" gridSize="10" guides="1" tooltips="1" connect="1" arrows="1" fold="1" page="1" pageScale="1" pageWidth="827" pageHeight="1169" math="0" shadow="0">
      <root>
        <mxCell id="0" />
        <mxCell id="1" parent="0" />
        <mxCell id="XHYVnQxGwRJhsAwLVEOP-1" value="" style="rounded=0;whiteSpace=wrap;html=1;" parent="1" vertex="1">
          <mxGeometry x="320" y="299.99667073567696" width="740" height="500" as="geometry" />
        </mxCell>
        <mxCell id="XHYVnQxGwRJhsAwLVEOP-2" value="" style="endArrow=none;html=1;rounded=0;" parent="1" edge="1">
          <mxGeometry width="50" height="50" relative="1" as="geometry">
            <mxPoint x="400" y="360.5866707356771" as="sourcePoint" />
            <mxPoint x="400" y="320.58667073567705" as="targetPoint" />
          </mxGeometry>
        </mxCell>
        <mxCell id="XHYVnQxGwRJhsAwLVEOP-3" value="" style="endArrow=none;html=1;rounded=0;" parent="1" edge="1">
          <mxGeometry width="50" height="50" relative="1" as="geometry">
            <mxPoint x="419.86" y="360.5866707356771" as="sourcePoint" />
            <mxPoint x="419.86" y="320.58667073567705" as="targetPoint" />
          </mxGeometry>
        </mxCell>
        <mxCell id="XHYVnQxGwRJhsAwLVEOP-4" value="" style="endArrow=none;html=1;rounded=0;" parent="1" edge="1">
          <mxGeometry width="50" height="50" relative="1" as="geometry">
            <mxPoint x="400" y="320.58667073567705" as="sourcePoint" />
            <mxPoint x="420" y="320.58667073567705" as="targetPoint" />
          </mxGeometry>
        </mxCell>
        <mxCell id="XHYVnQxGwRJhsAwLVEOP-5" value="" style="endArrow=none;html=1;rounded=0;" parent="1" edge="1">
          <mxGeometry width="50" height="50" relative="1" as="geometry">
            <mxPoint x="420" y="360.5866707356771" as="sourcePoint" />
            <mxPoint x="440" y="360.5866707356771" as="targetPoint" />
          </mxGeometry>
        </mxCell>
        <mxCell id="XHYVnQxGwRJhsAwLVEOP-6" value="" style="endArrow=none;html=1;rounded=0;" parent="1" edge="1">
          <mxGeometry width="50" height="50" relative="1" as="geometry">
            <mxPoint x="440" y="360.5866707356771" as="sourcePoint" />
            <mxPoint x="440" y="320.58667073567705" as="targetPoint" />
          </mxGeometry>
        </mxCell>
        <mxCell id="XHYVnQxGwRJhsAwLVEOP-7" value="" style="endArrow=none;html=1;rounded=0;" parent="1" edge="1">
          <mxGeometry width="50" height="50" relative="1" as="geometry">
            <mxPoint x="459.86" y="360.5866707356771" as="sourcePoint" />
            <mxPoint x="459.86" y="320.58667073567705" as="targetPoint" />
          </mxGeometry>
        </mxCell>
        <mxCell id="XHYVnQxGwRJhsAwLVEOP-8" value="" style="endArrow=none;html=1;rounded=0;" parent="1" edge="1">
          <mxGeometry width="50" height="50" relative="1" as="geometry">
            <mxPoint x="440" y="320.58667073567705" as="sourcePoint" />
            <mxPoint x="460" y="320.58667073567705" as="targetPoint" />
          </mxGeometry>
        </mxCell>
        <mxCell id="XHYVnQxGwRJhsAwLVEOP-9" value="" style="endArrow=none;html=1;rounded=0;" parent="1" edge="1">
          <mxGeometry width="50" height="50" relative="1" as="geometry">
            <mxPoint x="460" y="360.5866707356771" as="sourcePoint" />
            <mxPoint x="480" y="360.5866707356771" as="targetPoint" />
          </mxGeometry>
        </mxCell>
        <mxCell id="XHYVnQxGwRJhsAwLVEOP-10" value="" style="endArrow=none;html=1;rounded=0;" parent="1" edge="1">
          <mxGeometry width="50" height="50" relative="1" as="geometry">
            <mxPoint x="480" y="360.5866707356771" as="sourcePoint" />
            <mxPoint x="480" y="320.58667073567705" as="targetPoint" />
          </mxGeometry>
        </mxCell>
        <mxCell id="XHYVnQxGwRJhsAwLVEOP-11" value="" style="endArrow=none;html=1;rounded=0;" parent="1" edge="1">
          <mxGeometry width="50" height="50" relative="1" as="geometry">
            <mxPoint x="499.86" y="360.5866707356771" as="sourcePoint" />
            <mxPoint x="499.86" y="320.58667073567705" as="targetPoint" />
          </mxGeometry>
        </mxCell>
        <mxCell id="XHYVnQxGwRJhsAwLVEOP-12" value="" style="endArrow=none;html=1;rounded=0;" parent="1" edge="1">
          <mxGeometry width="50" height="50" relative="1" as="geometry">
            <mxPoint x="480" y="320.58667073567705" as="sourcePoint" />
            <mxPoint x="500" y="320.58667073567705" as="targetPoint" />
          </mxGeometry>
        </mxCell>
        <mxCell id="XHYVnQxGwRJhsAwLVEOP-13" value="" style="endArrow=none;html=1;rounded=0;" parent="1" edge="1">
          <mxGeometry width="50" height="50" relative="1" as="geometry">
            <mxPoint x="500" y="360.5866707356771" as="sourcePoint" />
            <mxPoint x="520" y="360.5866707356771" as="targetPoint" />
          </mxGeometry>
        </mxCell>
        <mxCell id="XHYVnQxGwRJhsAwLVEOP-14" value="" style="endArrow=none;html=1;rounded=0;" parent="1" edge="1">
          <mxGeometry width="50" height="50" relative="1" as="geometry">
            <mxPoint x="520" y="360.5866707356771" as="sourcePoint" />
            <mxPoint x="520" y="320.58667073567705" as="targetPoint" />
          </mxGeometry>
        </mxCell>
        <mxCell id="XHYVnQxGwRJhsAwLVEOP-15" value="" style="endArrow=none;html=1;rounded=0;" parent="1" edge="1">
          <mxGeometry width="50" height="50" relative="1" as="geometry">
            <mxPoint x="539.86" y="360.5866707356771" as="sourcePoint" />
            <mxPoint x="539.86" y="320.58667073567705" as="targetPoint" />
          </mxGeometry>
        </mxCell>
        <mxCell id="XHYVnQxGwRJhsAwLVEOP-16" value="" style="endArrow=none;html=1;rounded=0;" parent="1" edge="1">
          <mxGeometry width="50" height="50" relative="1" as="geometry">
            <mxPoint x="520" y="320.58667073567705" as="sourcePoint" />
            <mxPoint x="540" y="320.58667073567705" as="targetPoint" />
          </mxGeometry>
        </mxCell>
        <mxCell id="XHYVnQxGwRJhsAwLVEOP-17" value="" style="endArrow=none;html=1;rounded=0;" parent="1" edge="1">
          <mxGeometry width="50" height="50" relative="1" as="geometry">
            <mxPoint x="540" y="360.5866707356771" as="sourcePoint" />
            <mxPoint x="560" y="360.5866707356771" as="targetPoint" />
          </mxGeometry>
        </mxCell>
        <mxCell id="XHYVnQxGwRJhsAwLVEOP-18" value="" style="endArrow=none;html=1;rounded=0;" parent="1" edge="1">
          <mxGeometry width="50" height="50" relative="1" as="geometry">
            <mxPoint x="560" y="360.5866707356771" as="sourcePoint" />
            <mxPoint x="560" y="320.58667073567705" as="targetPoint" />
          </mxGeometry>
        </mxCell>
        <mxCell id="XHYVnQxGwRJhsAwLVEOP-19" value="" style="endArrow=none;html=1;rounded=0;" parent="1" edge="1">
          <mxGeometry width="50" height="50" relative="1" as="geometry">
            <mxPoint x="579.86" y="360.5866707356771" as="sourcePoint" />
            <mxPoint x="579.86" y="320.58667073567705" as="targetPoint" />
          </mxGeometry>
        </mxCell>
        <mxCell id="XHYVnQxGwRJhsAwLVEOP-20" value="" style="endArrow=none;html=1;rounded=0;" parent="1" edge="1">
          <mxGeometry width="50" height="50" relative="1" as="geometry">
            <mxPoint x="560" y="320.58667073567705" as="sourcePoint" />
            <mxPoint x="580" y="320.58667073567705" as="targetPoint" />
          </mxGeometry>
        </mxCell>
        <mxCell id="XHYVnQxGwRJhsAwLVEOP-21" value="" style="endArrow=none;html=1;rounded=0;" parent="1" edge="1">
          <mxGeometry width="50" height="50" relative="1" as="geometry">
            <mxPoint x="580" y="360.5866707356771" as="sourcePoint" />
            <mxPoint x="600" y="360.5866707356771" as="targetPoint" />
          </mxGeometry>
        </mxCell>
        <mxCell id="XHYVnQxGwRJhsAwLVEOP-22" value="" style="endArrow=none;html=1;rounded=0;" parent="1" edge="1">
          <mxGeometry width="50" height="50" relative="1" as="geometry">
            <mxPoint x="600" y="360.5866707356771" as="sourcePoint" />
            <mxPoint x="600" y="320.58667073567705" as="targetPoint" />
          </mxGeometry>
        </mxCell>
        <mxCell id="XHYVnQxGwRJhsAwLVEOP-23" value="" style="endArrow=none;html=1;rounded=0;" parent="1" edge="1">
          <mxGeometry width="50" height="50" relative="1" as="geometry">
            <mxPoint x="619.86" y="360.5866707356771" as="sourcePoint" />
            <mxPoint x="619.86" y="320.58667073567705" as="targetPoint" />
          </mxGeometry>
        </mxCell>
        <mxCell id="XHYVnQxGwRJhsAwLVEOP-24" value="" style="endArrow=none;html=1;rounded=0;" parent="1" edge="1">
          <mxGeometry width="50" height="50" relative="1" as="geometry">
            <mxPoint x="600" y="320.58667073567705" as="sourcePoint" />
            <mxPoint x="620" y="320.58667073567705" as="targetPoint" />
          </mxGeometry>
        </mxCell>
        <mxCell id="XHYVnQxGwRJhsAwLVEOP-25" value="" style="endArrow=none;html=1;rounded=0;" parent="1" edge="1">
          <mxGeometry width="50" height="50" relative="1" as="geometry">
            <mxPoint x="620" y="360.5866707356771" as="sourcePoint" />
            <mxPoint x="640" y="360.5866707356771" as="targetPoint" />
          </mxGeometry>
        </mxCell>
        <mxCell id="XHYVnQxGwRJhsAwLVEOP-26" value="" style="endArrow=none;html=1;rounded=0;" parent="1" edge="1">
          <mxGeometry width="50" height="50" relative="1" as="geometry">
            <mxPoint x="640" y="360.5866707356771" as="sourcePoint" />
            <mxPoint x="640" y="320.58667073567705" as="targetPoint" />
          </mxGeometry>
        </mxCell>
        <mxCell id="XHYVnQxGwRJhsAwLVEOP-27" value="" style="endArrow=none;html=1;rounded=0;" parent="1" edge="1">
          <mxGeometry width="50" height="50" relative="1" as="geometry">
            <mxPoint x="659.86" y="360.5866707356771" as="sourcePoint" />
            <mxPoint x="659.86" y="320.58667073567705" as="targetPoint" />
          </mxGeometry>
        </mxCell>
        <mxCell id="XHYVnQxGwRJhsAwLVEOP-28" value="" style="endArrow=none;html=1;rounded=0;" parent="1" edge="1">
          <mxGeometry width="50" height="50" relative="1" as="geometry">
            <mxPoint x="640" y="320.58667073567705" as="sourcePoint" />
            <mxPoint x="660" y="320.58667073567705" as="targetPoint" />
          </mxGeometry>
        </mxCell>
        <mxCell id="XHYVnQxGwRJhsAwLVEOP-29" value="" style="endArrow=none;html=1;rounded=0;" parent="1" edge="1">
          <mxGeometry width="50" height="50" relative="1" as="geometry">
            <mxPoint x="660" y="360.5866707356771" as="sourcePoint" />
            <mxPoint x="680" y="360.5866707356771" as="targetPoint" />
          </mxGeometry>
        </mxCell>
        <mxCell id="XHYVnQxGwRJhsAwLVEOP-30" value="" style="endArrow=none;html=1;rounded=0;" parent="1" edge="1">
          <mxGeometry width="50" height="50" relative="1" as="geometry">
            <mxPoint x="680" y="360.5866707356771" as="sourcePoint" />
            <mxPoint x="680" y="320.58667073567705" as="targetPoint" />
          </mxGeometry>
        </mxCell>
        <mxCell id="XHYVnQxGwRJhsAwLVEOP-31" value="" style="endArrow=none;html=1;rounded=0;" parent="1" edge="1">
          <mxGeometry width="50" height="50" relative="1" as="geometry">
            <mxPoint x="699.86" y="360.5866707356771" as="sourcePoint" />
            <mxPoint x="699.86" y="320.58667073567705" as="targetPoint" />
          </mxGeometry>
        </mxCell>
        <mxCell id="XHYVnQxGwRJhsAwLVEOP-32" value="" style="endArrow=none;html=1;rounded=0;" parent="1" edge="1">
          <mxGeometry width="50" height="50" relative="1" as="geometry">
            <mxPoint x="680" y="320.58667073567705" as="sourcePoint" />
            <mxPoint x="700" y="320.58667073567705" as="targetPoint" />
          </mxGeometry>
        </mxCell>
        <mxCell id="XHYVnQxGwRJhsAwLVEOP-33" value="" style="endArrow=none;html=1;rounded=0;" parent="1" edge="1">
          <mxGeometry width="50" height="50" relative="1" as="geometry">
            <mxPoint x="700" y="360.5866707356771" as="sourcePoint" />
            <mxPoint x="720" y="360.5866707356771" as="targetPoint" />
          </mxGeometry>
        </mxCell>
        <mxCell id="XHYVnQxGwRJhsAwLVEOP-34" value="" style="endArrow=none;html=1;rounded=0;" parent="1" edge="1">
          <mxGeometry width="50" height="50" relative="1" as="geometry">
            <mxPoint x="400" y="441.06667073567706" as="sourcePoint" />
            <mxPoint x="400" y="401.06667073567706" as="targetPoint" />
          </mxGeometry>
        </mxCell>
        <mxCell id="XHYVnQxGwRJhsAwLVEOP-35" value="" style="endArrow=none;html=1;rounded=0;" parent="1" edge="1">
          <mxGeometry width="50" height="50" relative="1" as="geometry">
            <mxPoint x="440" y="441.06667073567706" as="sourcePoint" />
            <mxPoint x="440" y="401.06667073567706" as="targetPoint" />
          </mxGeometry>
        </mxCell>
        <mxCell id="XHYVnQxGwRJhsAwLVEOP-36" value="" style="endArrow=none;html=1;rounded=0;" parent="1" edge="1">
          <mxGeometry width="50" height="50" relative="1" as="geometry">
            <mxPoint x="400" y="401.06667073567706" as="sourcePoint" />
            <mxPoint x="440" y="401.06667073567706" as="targetPoint" />
          </mxGeometry>
        </mxCell>
        <mxCell id="XHYVnQxGwRJhsAwLVEOP-37" value="" style="endArrow=none;html=1;rounded=0;" parent="1" edge="1">
          <mxGeometry width="50" height="50" relative="1" as="geometry">
            <mxPoint x="440" y="441.06667073567706" as="sourcePoint" />
            <mxPoint x="640" y="441.06667073567706" as="targetPoint" />
          </mxGeometry>
        </mxCell>
        <mxCell id="XHYVnQxGwRJhsAwLVEOP-38" value="" style="endArrow=none;html=1;rounded=0;" parent="1" edge="1">
          <mxGeometry width="50" height="50" relative="1" as="geometry">
            <mxPoint x="720" y="360.5866707356771" as="sourcePoint" />
            <mxPoint x="720" y="320.58667073567705" as="targetPoint" />
          </mxGeometry>
        </mxCell>
        <mxCell id="XHYVnQxGwRJhsAwLVEOP-39" value="" style="endArrow=none;html=1;rounded=0;" parent="1" edge="1">
          <mxGeometry width="50" height="50" relative="1" as="geometry">
            <mxPoint x="739.86" y="360.5866707356771" as="sourcePoint" />
            <mxPoint x="739.86" y="320.58667073567705" as="targetPoint" />
          </mxGeometry>
        </mxCell>
        <mxCell id="XHYVnQxGwRJhsAwLVEOP-40" value="" style="endArrow=none;html=1;rounded=0;" parent="1" edge="1">
          <mxGeometry width="50" height="50" relative="1" as="geometry">
            <mxPoint x="720" y="320.58667073567705" as="sourcePoint" />
            <mxPoint x="740" y="320.58667073567705" as="targetPoint" />
          </mxGeometry>
        </mxCell>
        <mxCell id="XHYVnQxGwRJhsAwLVEOP-41" value="" style="endArrow=none;html=1;rounded=0;" parent="1" edge="1">
          <mxGeometry width="50" height="50" relative="1" as="geometry">
            <mxPoint x="740" y="360.5866707356771" as="sourcePoint" />
            <mxPoint x="760" y="360.5866707356771" as="targetPoint" />
          </mxGeometry>
        </mxCell>
        <mxCell id="XHYVnQxGwRJhsAwLVEOP-42" value="" style="endArrow=none;html=1;rounded=0;" parent="1" edge="1">
          <mxGeometry width="50" height="50" relative="1" as="geometry">
            <mxPoint x="760" y="360.5866707356771" as="sourcePoint" />
            <mxPoint x="760" y="320.58667073567705" as="targetPoint" />
          </mxGeometry>
        </mxCell>
        <mxCell id="XHYVnQxGwRJhsAwLVEOP-43" value="" style="endArrow=none;html=1;rounded=0;" parent="1" edge="1">
          <mxGeometry width="50" height="50" relative="1" as="geometry">
            <mxPoint x="779.86" y="360.5866707356771" as="sourcePoint" />
            <mxPoint x="779.86" y="320.58667073567705" as="targetPoint" />
          </mxGeometry>
        </mxCell>
        <mxCell id="XHYVnQxGwRJhsAwLVEOP-44" value="" style="endArrow=none;html=1;rounded=0;" parent="1" edge="1">
          <mxGeometry width="50" height="50" relative="1" as="geometry">
            <mxPoint x="760" y="320.58667073567705" as="sourcePoint" />
            <mxPoint x="780" y="320.58667073567705" as="targetPoint" />
          </mxGeometry>
        </mxCell>
        <mxCell id="XHYVnQxGwRJhsAwLVEOP-45" value="" style="endArrow=none;html=1;rounded=0;" parent="1" edge="1">
          <mxGeometry width="50" height="50" relative="1" as="geometry">
            <mxPoint x="780" y="360.5866707356771" as="sourcePoint" />
            <mxPoint x="800" y="360.5866707356771" as="targetPoint" />
          </mxGeometry>
        </mxCell>
        <mxCell id="XHYVnQxGwRJhsAwLVEOP-46" value="" style="endArrow=none;html=1;rounded=0;" parent="1" edge="1">
          <mxGeometry width="50" height="50" relative="1" as="geometry">
            <mxPoint x="800" y="360.5866707356771" as="sourcePoint" />
            <mxPoint x="800" y="320.58667073567705" as="targetPoint" />
          </mxGeometry>
        </mxCell>
        <mxCell id="XHYVnQxGwRJhsAwLVEOP-47" value="" style="endArrow=none;html=1;rounded=0;" parent="1" edge="1">
          <mxGeometry width="50" height="50" relative="1" as="geometry">
            <mxPoint x="819.86" y="360.5866707356771" as="sourcePoint" />
            <mxPoint x="819.86" y="320.58667073567705" as="targetPoint" />
          </mxGeometry>
        </mxCell>
        <mxCell id="XHYVnQxGwRJhsAwLVEOP-48" value="" style="endArrow=none;html=1;rounded=0;" parent="1" edge="1">
          <mxGeometry width="50" height="50" relative="1" as="geometry">
            <mxPoint x="800" y="320.58667073567705" as="sourcePoint" />
            <mxPoint x="820" y="320.58667073567705" as="targetPoint" />
          </mxGeometry>
        </mxCell>
        <mxCell id="XHYVnQxGwRJhsAwLVEOP-49" value="" style="endArrow=none;html=1;rounded=0;" parent="1" edge="1">
          <mxGeometry width="50" height="50" relative="1" as="geometry">
            <mxPoint x="820" y="360.5866707356771" as="sourcePoint" />
            <mxPoint x="840" y="360.5866707356771" as="targetPoint" />
          </mxGeometry>
        </mxCell>
        <mxCell id="XHYVnQxGwRJhsAwLVEOP-50" value="" style="endArrow=none;html=1;rounded=0;" parent="1" edge="1">
          <mxGeometry width="50" height="50" relative="1" as="geometry">
            <mxPoint x="840" y="360.5866707356771" as="sourcePoint" />
            <mxPoint x="840" y="320.58667073567705" as="targetPoint" />
          </mxGeometry>
        </mxCell>
        <mxCell id="XHYVnQxGwRJhsAwLVEOP-51" value="" style="endArrow=none;html=1;rounded=0;" parent="1" edge="1">
          <mxGeometry width="50" height="50" relative="1" as="geometry">
            <mxPoint x="859.86" y="360.5866707356771" as="sourcePoint" />
            <mxPoint x="859.86" y="320.58667073567705" as="targetPoint" />
          </mxGeometry>
        </mxCell>
        <mxCell id="XHYVnQxGwRJhsAwLVEOP-52" value="" style="endArrow=none;html=1;rounded=0;" parent="1" edge="1">
          <mxGeometry width="50" height="50" relative="1" as="geometry">
            <mxPoint x="840" y="320.58667073567705" as="sourcePoint" />
            <mxPoint x="860" y="320.58667073567705" as="targetPoint" />
          </mxGeometry>
        </mxCell>
        <mxCell id="XHYVnQxGwRJhsAwLVEOP-53" value="" style="endArrow=none;html=1;rounded=0;" parent="1" edge="1">
          <mxGeometry width="50" height="50" relative="1" as="geometry">
            <mxPoint x="860" y="360.5866707356771" as="sourcePoint" />
            <mxPoint x="880" y="360.5866707356771" as="targetPoint" />
          </mxGeometry>
        </mxCell>
        <mxCell id="XHYVnQxGwRJhsAwLVEOP-54" value="" style="endArrow=none;html=1;rounded=0;" parent="1" edge="1">
          <mxGeometry width="50" height="50" relative="1" as="geometry">
            <mxPoint x="880" y="360.5866707356771" as="sourcePoint" />
            <mxPoint x="880" y="320.58667073567705" as="targetPoint" />
          </mxGeometry>
        </mxCell>
        <mxCell id="XHYVnQxGwRJhsAwLVEOP-55" value="" style="endArrow=none;html=1;rounded=0;" parent="1" edge="1">
          <mxGeometry width="50" height="50" relative="1" as="geometry">
            <mxPoint x="899.86" y="360.5866707356771" as="sourcePoint" />
            <mxPoint x="899.86" y="320.58667073567705" as="targetPoint" />
          </mxGeometry>
        </mxCell>
        <mxCell id="XHYVnQxGwRJhsAwLVEOP-56" value="" style="endArrow=none;html=1;rounded=0;" parent="1" edge="1">
          <mxGeometry width="50" height="50" relative="1" as="geometry">
            <mxPoint x="880" y="320.58667073567705" as="sourcePoint" />
            <mxPoint x="900" y="320.58667073567705" as="targetPoint" />
          </mxGeometry>
        </mxCell>
        <mxCell id="XHYVnQxGwRJhsAwLVEOP-57" value="" style="endArrow=none;html=1;rounded=0;" parent="1" edge="1">
          <mxGeometry width="50" height="50" relative="1" as="geometry">
            <mxPoint x="900" y="360.5866707356771" as="sourcePoint" />
            <mxPoint x="920" y="360.5866707356771" as="targetPoint" />
          </mxGeometry>
        </mxCell>
        <mxCell id="XHYVnQxGwRJhsAwLVEOP-58" value="" style="endArrow=none;html=1;rounded=0;" parent="1" edge="1">
          <mxGeometry width="50" height="50" relative="1" as="geometry">
            <mxPoint x="920" y="360.5866707356771" as="sourcePoint" />
            <mxPoint x="920" y="320.58667073567705" as="targetPoint" />
          </mxGeometry>
        </mxCell>
        <mxCell id="XHYVnQxGwRJhsAwLVEOP-59" value="" style="endArrow=none;html=1;rounded=0;" parent="1" edge="1">
          <mxGeometry width="50" height="50" relative="1" as="geometry">
            <mxPoint x="939.86" y="360.5866707356771" as="sourcePoint" />
            <mxPoint x="939.86" y="320.58667073567705" as="targetPoint" />
          </mxGeometry>
        </mxCell>
        <mxCell id="XHYVnQxGwRJhsAwLVEOP-60" value="" style="endArrow=none;html=1;rounded=0;" parent="1" edge="1">
          <mxGeometry width="50" height="50" relative="1" as="geometry">
            <mxPoint x="920" y="320.58667073567705" as="sourcePoint" />
            <mxPoint x="940" y="320.58667073567705" as="targetPoint" />
          </mxGeometry>
        </mxCell>
        <mxCell id="XHYVnQxGwRJhsAwLVEOP-61" value="" style="endArrow=none;html=1;rounded=0;" parent="1" edge="1">
          <mxGeometry width="50" height="50" relative="1" as="geometry">
            <mxPoint x="940" y="360.5866707356771" as="sourcePoint" />
            <mxPoint x="960" y="360.5866707356771" as="targetPoint" />
          </mxGeometry>
        </mxCell>
        <mxCell id="XHYVnQxGwRJhsAwLVEOP-62" value="" style="endArrow=none;html=1;rounded=0;" parent="1" edge="1">
          <mxGeometry width="50" height="50" relative="1" as="geometry">
            <mxPoint x="960" y="360.5866707356771" as="sourcePoint" />
            <mxPoint x="960" y="320.58667073567705" as="targetPoint" />
          </mxGeometry>
        </mxCell>
        <mxCell id="XHYVnQxGwRJhsAwLVEOP-63" value="" style="endArrow=none;html=1;rounded=0;" parent="1" edge="1">
          <mxGeometry width="50" height="50" relative="1" as="geometry">
            <mxPoint x="979.86" y="360.5866707356771" as="sourcePoint" />
            <mxPoint x="979.86" y="320.58667073567705" as="targetPoint" />
          </mxGeometry>
        </mxCell>
        <mxCell id="XHYVnQxGwRJhsAwLVEOP-64" value="" style="endArrow=none;html=1;rounded=0;" parent="1" edge="1">
          <mxGeometry width="50" height="50" relative="1" as="geometry">
            <mxPoint x="960" y="320.58667073567705" as="sourcePoint" />
            <mxPoint x="980" y="320.58667073567705" as="targetPoint" />
          </mxGeometry>
        </mxCell>
        <mxCell id="XHYVnQxGwRJhsAwLVEOP-65" value="" style="endArrow=none;html=1;rounded=0;" parent="1" edge="1">
          <mxGeometry width="50" height="50" relative="1" as="geometry">
            <mxPoint x="980" y="360.5866707356771" as="sourcePoint" />
            <mxPoint x="1000" y="360.5866707356771" as="targetPoint" />
          </mxGeometry>
        </mxCell>
        <mxCell id="XHYVnQxGwRJhsAwLVEOP-66" value="" style="endArrow=none;html=1;rounded=0;" parent="1" edge="1">
          <mxGeometry width="50" height="50" relative="1" as="geometry">
            <mxPoint x="1000" y="360.5866707356771" as="sourcePoint" />
            <mxPoint x="1000" y="320.58667073567705" as="targetPoint" />
          </mxGeometry>
        </mxCell>
        <mxCell id="XHYVnQxGwRJhsAwLVEOP-67" value="" style="endArrow=none;html=1;rounded=0;" parent="1" edge="1">
          <mxGeometry width="50" height="50" relative="1" as="geometry">
            <mxPoint x="1019.86" y="360.5866707356771" as="sourcePoint" />
            <mxPoint x="1019.86" y="320.58667073567705" as="targetPoint" />
          </mxGeometry>
        </mxCell>
        <mxCell id="XHYVnQxGwRJhsAwLVEOP-68" value="" style="endArrow=none;html=1;rounded=0;" parent="1" edge="1">
          <mxGeometry width="50" height="50" relative="1" as="geometry">
            <mxPoint x="1000" y="320.58667073567705" as="sourcePoint" />
            <mxPoint x="1020" y="320.58667073567705" as="targetPoint" />
          </mxGeometry>
        </mxCell>
        <mxCell id="XHYVnQxGwRJhsAwLVEOP-69" value="" style="endArrow=none;html=1;rounded=0;" parent="1" edge="1">
          <mxGeometry width="50" height="50" relative="1" as="geometry">
            <mxPoint x="1020" y="360.5866707356771" as="sourcePoint" />
            <mxPoint x="1040" y="360.5866707356771" as="targetPoint" />
          </mxGeometry>
        </mxCell>
        <mxCell id="XHYVnQxGwRJhsAwLVEOP-70" value="Clock" style="text;html=1;align=center;verticalAlign=middle;whiteSpace=wrap;rounded=0;" parent="1" vertex="1">
          <mxGeometry x="320" y="321.06667073567706" width="40" height="40" as="geometry" />
        </mxCell>
        <mxCell id="XHYVnQxGwRJhsAwLVEOP-71" value="" style="endArrow=none;html=1;rounded=0;" parent="1" edge="1">
          <mxGeometry width="50" height="50" relative="1" as="geometry">
            <mxPoint x="360" y="360.5866707356771" as="sourcePoint" />
            <mxPoint x="400" y="360.5866707356771" as="targetPoint" />
          </mxGeometry>
        </mxCell>
        <mxCell id="XHYVnQxGwRJhsAwLVEOP-72" value="" style="endArrow=none;html=1;rounded=0;" parent="1" edge="1">
          <mxGeometry width="50" height="50" relative="1" as="geometry">
            <mxPoint x="360" y="441.06667073567706" as="sourcePoint" />
            <mxPoint x="400" y="441.06667073567706" as="targetPoint" />
          </mxGeometry>
        </mxCell>
        <mxCell id="XHYVnQxGwRJhsAwLVEOP-73" value="ON" style="text;html=1;align=center;verticalAlign=middle;whiteSpace=wrap;rounded=0;" parent="1" vertex="1">
          <mxGeometry x="360" y="311.06667073567706" width="40" height="20" as="geometry" />
        </mxCell>
        <mxCell id="XHYVnQxGwRJhsAwLVEOP-74" value="OFF" style="text;html=1;align=center;verticalAlign=middle;whiteSpace=wrap;rounded=0;" parent="1" vertex="1">
          <mxGeometry x="360" y="341.06667073567706" width="40" height="20" as="geometry" />
        </mxCell>
        <mxCell id="XHYVnQxGwRJhsAwLVEOP-75" value="Onset&lt;div&gt;3&lt;/div&gt;" style="text;html=1;align=center;verticalAlign=middle;whiteSpace=wrap;rounded=0;" parent="1" vertex="1">
          <mxGeometry x="320" y="401.06667073567706" width="40" height="40" as="geometry" />
        </mxCell>
        <mxCell id="XHYVnQxGwRJhsAwLVEOP-78" value="" style="endArrow=none;dashed=1;html=1;dashPattern=1 3;strokeWidth=2;rounded=0;" parent="1" edge="1">
          <mxGeometry width="50" height="50" relative="1" as="geometry">
            <mxPoint x="400" y="771.066670735677" as="sourcePoint" />
            <mxPoint x="400" y="301.06667073567706" as="targetPoint" />
          </mxGeometry>
        </mxCell>
        <mxCell id="XHYVnQxGwRJhsAwLVEOP-79" value="" style="endArrow=none;dashed=1;html=1;dashPattern=1 3;strokeWidth=2;rounded=0;" parent="1" edge="1">
          <mxGeometry width="50" height="50" relative="1" as="geometry">
            <mxPoint x="440" y="771.066670735677" as="sourcePoint" />
            <mxPoint x="440" y="301.06667073567706" as="targetPoint" />
          </mxGeometry>
        </mxCell>
        <mxCell id="XHYVnQxGwRJhsAwLVEOP-80" value="" style="endArrow=none;dashed=1;html=1;dashPattern=1 3;strokeWidth=2;rounded=0;" parent="1" edge="1">
          <mxGeometry width="50" height="50" relative="1" as="geometry">
            <mxPoint x="480" y="771.066670735677" as="sourcePoint" />
            <mxPoint x="480" y="300" as="targetPoint" />
          </mxGeometry>
        </mxCell>
        <mxCell id="XHYVnQxGwRJhsAwLVEOP-81" value="" style="endArrow=none;dashed=1;html=1;dashPattern=1 3;strokeWidth=2;rounded=0;" parent="1" edge="1">
          <mxGeometry width="50" height="50" relative="1" as="geometry">
            <mxPoint x="520" y="771.066670735677" as="sourcePoint" />
            <mxPoint x="520" y="301.06667073567706" as="targetPoint" />
          </mxGeometry>
        </mxCell>
        <mxCell id="XHYVnQxGwRJhsAwLVEOP-82" value="" style="endArrow=none;dashed=1;html=1;dashPattern=1 3;strokeWidth=2;rounded=0;" parent="1" edge="1">
          <mxGeometry width="50" height="50" relative="1" as="geometry">
            <mxPoint x="560" y="771.066670735677" as="sourcePoint" />
            <mxPoint x="560" y="301.06667073567706" as="targetPoint" />
          </mxGeometry>
        </mxCell>
        <mxCell id="XHYVnQxGwRJhsAwLVEOP-83" value="" style="endArrow=none;dashed=1;html=1;dashPattern=1 3;strokeWidth=2;rounded=0;" parent="1" edge="1">
          <mxGeometry width="50" height="50" relative="1" as="geometry">
            <mxPoint x="600" y="771.066670735677" as="sourcePoint" />
            <mxPoint x="600" y="301.06667073567706" as="targetPoint" />
          </mxGeometry>
        </mxCell>
        <mxCell id="XHYVnQxGwRJhsAwLVEOP-84" value="" style="endArrow=none;dashed=1;html=1;dashPattern=1 3;strokeWidth=2;rounded=0;" parent="1" edge="1">
          <mxGeometry width="50" height="50" relative="1" as="geometry">
            <mxPoint x="640" y="771.066670735677" as="sourcePoint" />
            <mxPoint x="640" y="301.06667073567706" as="targetPoint" />
          </mxGeometry>
        </mxCell>
        <mxCell id="XHYVnQxGwRJhsAwLVEOP-85" value="" style="endArrow=none;dashed=1;html=1;dashPattern=1 3;strokeWidth=2;rounded=0;" parent="1" edge="1">
          <mxGeometry width="50" height="50" relative="1" as="geometry">
            <mxPoint x="680" y="771.066670735677" as="sourcePoint" />
            <mxPoint x="680" y="301.06667073567706" as="targetPoint" />
          </mxGeometry>
        </mxCell>
        <mxCell id="XHYVnQxGwRJhsAwLVEOP-86" value="" style="endArrow=none;dashed=1;html=1;dashPattern=1 3;strokeWidth=2;rounded=0;" parent="1" edge="1">
          <mxGeometry width="50" height="50" relative="1" as="geometry">
            <mxPoint x="720" y="771.066670735677" as="sourcePoint" />
            <mxPoint x="720" y="301.06667073567706" as="targetPoint" />
          </mxGeometry>
        </mxCell>
        <mxCell id="XHYVnQxGwRJhsAwLVEOP-87" value="" style="endArrow=none;dashed=1;html=1;dashPattern=1 3;strokeWidth=2;rounded=0;" parent="1" edge="1">
          <mxGeometry width="50" height="50" relative="1" as="geometry">
            <mxPoint x="760" y="771.066670735677" as="sourcePoint" />
            <mxPoint x="760" y="301.06667073567706" as="targetPoint" />
          </mxGeometry>
        </mxCell>
        <mxCell id="XHYVnQxGwRJhsAwLVEOP-88" value="" style="endArrow=none;dashed=1;html=1;dashPattern=1 3;strokeWidth=2;rounded=0;" parent="1" edge="1">
          <mxGeometry width="50" height="50" relative="1" as="geometry">
            <mxPoint x="800" y="771.066670735677" as="sourcePoint" />
            <mxPoint x="800" y="301.06667073567706" as="targetPoint" />
          </mxGeometry>
        </mxCell>
        <mxCell id="XHYVnQxGwRJhsAwLVEOP-89" value="" style="endArrow=none;dashed=1;html=1;dashPattern=1 3;strokeWidth=2;rounded=0;" parent="1" edge="1">
          <mxGeometry width="50" height="50" relative="1" as="geometry">
            <mxPoint x="840" y="771.066670735677" as="sourcePoint" />
            <mxPoint x="840" y="301.06667073567706" as="targetPoint" />
          </mxGeometry>
        </mxCell>
        <mxCell id="XHYVnQxGwRJhsAwLVEOP-90" value="" style="endArrow=none;dashed=1;html=1;dashPattern=1 3;strokeWidth=2;rounded=0;" parent="1" edge="1">
          <mxGeometry width="50" height="50" relative="1" as="geometry">
            <mxPoint x="880" y="771.066670735677" as="sourcePoint" />
            <mxPoint x="880" y="301.06667073567706" as="targetPoint" />
          </mxGeometry>
        </mxCell>
        <mxCell id="XHYVnQxGwRJhsAwLVEOP-91" value="" style="endArrow=none;dashed=1;html=1;dashPattern=1 3;strokeWidth=2;rounded=0;" parent="1" edge="1">
          <mxGeometry width="50" height="50" relative="1" as="geometry">
            <mxPoint x="920" y="771.066670735677" as="sourcePoint" />
            <mxPoint x="920" y="301.06667073567706" as="targetPoint" />
          </mxGeometry>
        </mxCell>
        <mxCell id="XHYVnQxGwRJhsAwLVEOP-92" value="" style="endArrow=none;dashed=1;html=1;dashPattern=1 3;strokeWidth=2;rounded=0;" parent="1" edge="1">
          <mxGeometry width="50" height="50" relative="1" as="geometry">
            <mxPoint x="960" y="771.066670735677" as="sourcePoint" />
            <mxPoint x="960" y="301.06667073567706" as="targetPoint" />
          </mxGeometry>
        </mxCell>
        <mxCell id="XHYVnQxGwRJhsAwLVEOP-93" value="" style="endArrow=none;dashed=1;html=1;dashPattern=1 3;strokeWidth=2;rounded=0;" parent="1" edge="1">
          <mxGeometry width="50" height="50" relative="1" as="geometry">
            <mxPoint x="1000" y="771.066670735677" as="sourcePoint" />
            <mxPoint x="1000" y="301.06667073567706" as="targetPoint" />
          </mxGeometry>
        </mxCell>
        <mxCell id="XHYVnQxGwRJhsAwLVEOP-94" value="Onset&lt;div&gt;4&lt;/div&gt;" style="text;html=1;align=center;verticalAlign=middle;whiteSpace=wrap;rounded=0;" parent="1" vertex="1">
          <mxGeometry x="320" y="461.06667073567706" width="40" height="40" as="geometry" />
        </mxCell>
        <mxCell id="XHYVnQxGwRJhsAwLVEOP-95" value="Onset&lt;div&gt;5&lt;/div&gt;" style="text;html=1;align=center;verticalAlign=middle;whiteSpace=wrap;rounded=0;" parent="1" vertex="1">
          <mxGeometry x="320" y="521.066670735677" width="40" height="40" as="geometry" />
        </mxCell>
        <mxCell id="XHYVnQxGwRJhsAwLVEOP-96" value="Onset&lt;div&gt;6&lt;/div&gt;" style="text;html=1;align=center;verticalAlign=middle;whiteSpace=wrap;rounded=0;" parent="1" vertex="1">
          <mxGeometry x="320" y="581.066670735677" width="40" height="40" as="geometry" />
        </mxCell>
        <mxCell id="XHYVnQxGwRJhsAwLVEOP-97" value="Onset&lt;div&gt;10&lt;/div&gt;" style="text;html=1;align=center;verticalAlign=middle;whiteSpace=wrap;rounded=0;" parent="1" vertex="1">
          <mxGeometry x="320" y="641.066670735677" width="40" height="40" as="geometry" />
        </mxCell>
        <mxCell id="XHYVnQxGwRJhsAwLVEOP-98" value="Onset&lt;div&gt;10&lt;div&gt;(50%)&lt;/div&gt;&lt;/div&gt;" style="text;html=1;align=center;verticalAlign=middle;whiteSpace=wrap;rounded=0;" parent="1" vertex="1">
          <mxGeometry x="320" y="701.066670735677" width="40" height="40" as="geometry" />
        </mxCell>
        <mxCell id="XHYVnQxGwRJhsAwLVEOP-99" value="..." style="text;html=1;align=center;verticalAlign=middle;whiteSpace=wrap;rounded=0;" parent="1" vertex="1">
          <mxGeometry x="320" y="751.066670735677" width="40" height="40" as="geometry" />
        </mxCell>
        <mxCell id="XHYVnQxGwRJhsAwLVEOP-100" value="" style="endArrow=none;html=1;rounded=0;" parent="1" edge="1">
          <mxGeometry width="50" height="50" relative="1" as="geometry">
            <mxPoint x="640" y="440.2366707356771" as="sourcePoint" />
            <mxPoint x="640" y="400.2366707356771" as="targetPoint" />
          </mxGeometry>
        </mxCell>
        <mxCell id="XHYVnQxGwRJhsAwLVEOP-101" value="" style="endArrow=none;html=1;rounded=0;" parent="1" edge="1">
          <mxGeometry width="50" height="50" relative="1" as="geometry">
            <mxPoint x="680" y="440.2366707356771" as="sourcePoint" />
            <mxPoint x="680" y="400.2366707356771" as="targetPoint" />
          </mxGeometry>
        </mxCell>
        <mxCell id="XHYVnQxGwRJhsAwLVEOP-102" value="" style="endArrow=none;html=1;rounded=0;" parent="1" edge="1">
          <mxGeometry width="50" height="50" relative="1" as="geometry">
            <mxPoint x="640" y="400.2366707356771" as="sourcePoint" />
            <mxPoint x="680" y="400.2366707356771" as="targetPoint" />
          </mxGeometry>
        </mxCell>
        <mxCell id="XHYVnQxGwRJhsAwLVEOP-103" value="" style="endArrow=none;html=1;rounded=0;" parent="1" edge="1">
          <mxGeometry width="50" height="50" relative="1" as="geometry">
            <mxPoint x="680" y="440.2366707356771" as="sourcePoint" />
            <mxPoint x="840" y="441.06667073567706" as="targetPoint" />
          </mxGeometry>
        </mxCell>
        <mxCell id="XHYVnQxGwRJhsAwLVEOP-104" value="" style="endArrow=none;html=1;rounded=0;" parent="1" edge="1">
          <mxGeometry width="50" height="50" relative="1" as="geometry">
            <mxPoint x="840" y="440.2366707356771" as="sourcePoint" />
            <mxPoint x="840" y="400.2366707356771" as="targetPoint" />
          </mxGeometry>
        </mxCell>
        <mxCell id="XHYVnQxGwRJhsAwLVEOP-105" value="" style="endArrow=none;html=1;rounded=0;" parent="1" edge="1">
          <mxGeometry width="50" height="50" relative="1" as="geometry">
            <mxPoint x="880" y="440.2366707356771" as="sourcePoint" />
            <mxPoint x="880" y="400.2366707356771" as="targetPoint" />
          </mxGeometry>
        </mxCell>
        <mxCell id="XHYVnQxGwRJhsAwLVEOP-106" value="" style="endArrow=none;html=1;rounded=0;" parent="1" edge="1">
          <mxGeometry width="50" height="50" relative="1" as="geometry">
            <mxPoint x="840" y="400.2366707356771" as="sourcePoint" />
            <mxPoint x="880" y="400.2366707356771" as="targetPoint" />
          </mxGeometry>
        </mxCell>
        <mxCell id="XHYVnQxGwRJhsAwLVEOP-107" value="" style="endArrow=none;html=1;rounded=0;" parent="1" edge="1">
          <mxGeometry width="50" height="50" relative="1" as="geometry">
            <mxPoint x="880" y="440.2366707356771" as="sourcePoint" />
            <mxPoint x="1040" y="440.06667073567706" as="targetPoint" />
          </mxGeometry>
        </mxCell>
        <mxCell id="XHYVnQxGwRJhsAwLVEOP-108" value="" style="endArrow=none;html=1;rounded=0;" parent="1" edge="1">
          <mxGeometry width="50" height="50" relative="1" as="geometry">
            <mxPoint x="400" y="501.066670735677" as="sourcePoint" />
            <mxPoint x="400" y="461.06667073567706" as="targetPoint" />
          </mxGeometry>
        </mxCell>
        <mxCell id="XHYVnQxGwRJhsAwLVEOP-109" value="" style="endArrow=none;html=1;rounded=0;" parent="1" edge="1">
          <mxGeometry width="50" height="50" relative="1" as="geometry">
            <mxPoint x="440" y="501.066670735677" as="sourcePoint" />
            <mxPoint x="440" y="461.06667073567706" as="targetPoint" />
          </mxGeometry>
        </mxCell>
        <mxCell id="XHYVnQxGwRJhsAwLVEOP-110" value="" style="endArrow=none;html=1;rounded=0;" parent="1" edge="1">
          <mxGeometry width="50" height="50" relative="1" as="geometry">
            <mxPoint x="400" y="461.06667073567706" as="sourcePoint" />
            <mxPoint x="440" y="461.06667073567706" as="targetPoint" />
          </mxGeometry>
        </mxCell>
        <mxCell id="XHYVnQxGwRJhsAwLVEOP-111" value="" style="endArrow=none;html=1;rounded=0;" parent="1" edge="1">
          <mxGeometry width="50" height="50" relative="1" as="geometry">
            <mxPoint x="440" y="501.066670735677" as="sourcePoint" />
            <mxPoint x="560" y="501.066670735677" as="targetPoint" />
          </mxGeometry>
        </mxCell>
        <mxCell id="XHYVnQxGwRJhsAwLVEOP-112" value="" style="endArrow=none;html=1;rounded=0;" parent="1" edge="1">
          <mxGeometry width="50" height="50" relative="1" as="geometry">
            <mxPoint x="560" y="501.066670735677" as="sourcePoint" />
            <mxPoint x="560" y="461.06667073567706" as="targetPoint" />
          </mxGeometry>
        </mxCell>
        <mxCell id="XHYVnQxGwRJhsAwLVEOP-113" value="" style="endArrow=none;html=1;rounded=0;" parent="1" edge="1">
          <mxGeometry width="50" height="50" relative="1" as="geometry">
            <mxPoint x="600" y="501.066670735677" as="sourcePoint" />
            <mxPoint x="600" y="461.06667073567706" as="targetPoint" />
          </mxGeometry>
        </mxCell>
        <mxCell id="XHYVnQxGwRJhsAwLVEOP-114" value="" style="endArrow=none;html=1;rounded=0;" parent="1" edge="1">
          <mxGeometry width="50" height="50" relative="1" as="geometry">
            <mxPoint x="560" y="461.06667073567706" as="sourcePoint" />
            <mxPoint x="600" y="461.06667073567706" as="targetPoint" />
          </mxGeometry>
        </mxCell>
        <mxCell id="XHYVnQxGwRJhsAwLVEOP-115" value="" style="endArrow=none;html=1;rounded=0;" parent="1" edge="1">
          <mxGeometry width="50" height="50" relative="1" as="geometry">
            <mxPoint x="600" y="501.066670735677" as="sourcePoint" />
            <mxPoint x="720" y="501.066670735677" as="targetPoint" />
          </mxGeometry>
        </mxCell>
        <mxCell id="XHYVnQxGwRJhsAwLVEOP-116" value="" style="endArrow=none;html=1;rounded=0;" parent="1" edge="1">
          <mxGeometry width="50" height="50" relative="1" as="geometry">
            <mxPoint x="720" y="501.066670735677" as="sourcePoint" />
            <mxPoint x="720" y="461.06667073567706" as="targetPoint" />
          </mxGeometry>
        </mxCell>
        <mxCell id="XHYVnQxGwRJhsAwLVEOP-117" value="" style="endArrow=none;html=1;rounded=0;" parent="1" edge="1">
          <mxGeometry width="50" height="50" relative="1" as="geometry">
            <mxPoint x="760" y="501.066670735677" as="sourcePoint" />
            <mxPoint x="760" y="461.06667073567706" as="targetPoint" />
          </mxGeometry>
        </mxCell>
        <mxCell id="XHYVnQxGwRJhsAwLVEOP-118" value="" style="endArrow=none;html=1;rounded=0;" parent="1" edge="1">
          <mxGeometry width="50" height="50" relative="1" as="geometry">
            <mxPoint x="720" y="461.06667073567706" as="sourcePoint" />
            <mxPoint x="760" y="461.06667073567706" as="targetPoint" />
          </mxGeometry>
        </mxCell>
        <mxCell id="XHYVnQxGwRJhsAwLVEOP-119" value="" style="endArrow=none;html=1;rounded=0;" parent="1" edge="1">
          <mxGeometry width="50" height="50" relative="1" as="geometry">
            <mxPoint x="760" y="501.066670735677" as="sourcePoint" />
            <mxPoint x="880" y="501.066670735677" as="targetPoint" />
          </mxGeometry>
        </mxCell>
        <mxCell id="XHYVnQxGwRJhsAwLVEOP-120" value="" style="endArrow=none;html=1;rounded=0;" parent="1" edge="1">
          <mxGeometry width="50" height="50" relative="1" as="geometry">
            <mxPoint x="880" y="501.066670735677" as="sourcePoint" />
            <mxPoint x="880" y="461.06667073567706" as="targetPoint" />
          </mxGeometry>
        </mxCell>
        <mxCell id="XHYVnQxGwRJhsAwLVEOP-121" value="" style="endArrow=none;html=1;rounded=0;" parent="1" edge="1">
          <mxGeometry width="50" height="50" relative="1" as="geometry">
            <mxPoint x="920" y="501.066670735677" as="sourcePoint" />
            <mxPoint x="920" y="461.06667073567706" as="targetPoint" />
          </mxGeometry>
        </mxCell>
        <mxCell id="XHYVnQxGwRJhsAwLVEOP-122" value="" style="endArrow=none;html=1;rounded=0;" parent="1" edge="1">
          <mxGeometry width="50" height="50" relative="1" as="geometry">
            <mxPoint x="880" y="461.06667073567706" as="sourcePoint" />
            <mxPoint x="920" y="461.06667073567706" as="targetPoint" />
          </mxGeometry>
        </mxCell>
        <mxCell id="XHYVnQxGwRJhsAwLVEOP-123" value="" style="endArrow=none;html=1;rounded=0;" parent="1" edge="1">
          <mxGeometry width="50" height="50" relative="1" as="geometry">
            <mxPoint x="920" y="501.066670735677" as="sourcePoint" />
            <mxPoint x="1040" y="501.066670735677" as="targetPoint" />
          </mxGeometry>
        </mxCell>
        <mxCell id="XHYVnQxGwRJhsAwLVEOP-124" value="" style="endArrow=none;html=1;rounded=0;" parent="1" edge="1">
          <mxGeometry width="50" height="50" relative="1" as="geometry">
            <mxPoint x="400" y="561.066670735677" as="sourcePoint" />
            <mxPoint x="400" y="521.066670735677" as="targetPoint" />
          </mxGeometry>
        </mxCell>
        <mxCell id="XHYVnQxGwRJhsAwLVEOP-125" value="" style="endArrow=none;html=1;rounded=0;" parent="1" edge="1">
          <mxGeometry width="50" height="50" relative="1" as="geometry">
            <mxPoint x="440" y="561.066670735677" as="sourcePoint" />
            <mxPoint x="440" y="521.066670735677" as="targetPoint" />
          </mxGeometry>
        </mxCell>
        <mxCell id="XHYVnQxGwRJhsAwLVEOP-126" value="" style="endArrow=none;html=1;rounded=0;" parent="1" edge="1">
          <mxGeometry width="50" height="50" relative="1" as="geometry">
            <mxPoint x="400" y="521.066670735677" as="sourcePoint" />
            <mxPoint x="440" y="521.066670735677" as="targetPoint" />
          </mxGeometry>
        </mxCell>
        <mxCell id="XHYVnQxGwRJhsAwLVEOP-127" value="" style="endArrow=none;html=1;rounded=0;" parent="1" edge="1">
          <mxGeometry width="50" height="50" relative="1" as="geometry">
            <mxPoint x="440" y="561.066670735677" as="sourcePoint" />
            <mxPoint x="560" y="561.066670735677" as="targetPoint" />
          </mxGeometry>
        </mxCell>
        <mxCell id="XHYVnQxGwRJhsAwLVEOP-128" value="" style="endArrow=none;html=1;rounded=0;" parent="1" edge="1">
          <mxGeometry width="50" height="50" relative="1" as="geometry">
            <mxPoint x="560" y="561.066670735677" as="sourcePoint" />
            <mxPoint x="560" y="521.066670735677" as="targetPoint" />
          </mxGeometry>
        </mxCell>
        <mxCell id="XHYVnQxGwRJhsAwLVEOP-129" value="" style="endArrow=none;html=1;rounded=0;" parent="1" edge="1">
          <mxGeometry width="50" height="50" relative="1" as="geometry">
            <mxPoint x="600" y="561.066670735677" as="sourcePoint" />
            <mxPoint x="600" y="521.066670735677" as="targetPoint" />
          </mxGeometry>
        </mxCell>
        <mxCell id="XHYVnQxGwRJhsAwLVEOP-130" value="" style="endArrow=none;html=1;rounded=0;" parent="1" edge="1">
          <mxGeometry width="50" height="50" relative="1" as="geometry">
            <mxPoint x="560" y="521.066670735677" as="sourcePoint" />
            <mxPoint x="600" y="521.066670735677" as="targetPoint" />
          </mxGeometry>
        </mxCell>
        <mxCell id="XHYVnQxGwRJhsAwLVEOP-131" value="" style="endArrow=none;html=1;rounded=0;" parent="1" edge="1">
          <mxGeometry width="50" height="50" relative="1" as="geometry">
            <mxPoint x="600" y="561.066670735677" as="sourcePoint" />
            <mxPoint x="680" y="561.066670735677" as="targetPoint" />
          </mxGeometry>
        </mxCell>
        <mxCell id="XHYVnQxGwRJhsAwLVEOP-132" value="" style="endArrow=none;html=1;rounded=0;" parent="1" edge="1">
          <mxGeometry width="50" height="50" relative="1" as="geometry">
            <mxPoint x="680" y="561.066670735677" as="sourcePoint" />
            <mxPoint x="680" y="521.066670735677" as="targetPoint" />
          </mxGeometry>
        </mxCell>
        <mxCell id="XHYVnQxGwRJhsAwLVEOP-133" value="" style="endArrow=none;html=1;rounded=0;" parent="1" edge="1">
          <mxGeometry width="50" height="50" relative="1" as="geometry">
            <mxPoint x="720" y="561.066670735677" as="sourcePoint" />
            <mxPoint x="720" y="521.066670735677" as="targetPoint" />
          </mxGeometry>
        </mxCell>
        <mxCell id="XHYVnQxGwRJhsAwLVEOP-134" value="" style="endArrow=none;html=1;rounded=0;" parent="1" edge="1">
          <mxGeometry width="50" height="50" relative="1" as="geometry">
            <mxPoint x="680" y="521.066670735677" as="sourcePoint" />
            <mxPoint x="720" y="521.066670735677" as="targetPoint" />
          </mxGeometry>
        </mxCell>
        <mxCell id="XHYVnQxGwRJhsAwLVEOP-135" value="" style="endArrow=none;html=1;rounded=0;" parent="1" edge="1">
          <mxGeometry width="50" height="50" relative="1" as="geometry">
            <mxPoint x="720" y="561.066670735677" as="sourcePoint" />
            <mxPoint x="800" y="561.066670735677" as="targetPoint" />
          </mxGeometry>
        </mxCell>
        <mxCell id="XHYVnQxGwRJhsAwLVEOP-136" value="" style="endArrow=none;html=1;rounded=0;" parent="1" edge="1">
          <mxGeometry width="50" height="50" relative="1" as="geometry">
            <mxPoint x="800" y="561.066670735677" as="sourcePoint" />
            <mxPoint x="800" y="521.066670735677" as="targetPoint" />
          </mxGeometry>
        </mxCell>
        <mxCell id="XHYVnQxGwRJhsAwLVEOP-137" value="" style="endArrow=none;html=1;rounded=0;" parent="1" edge="1">
          <mxGeometry width="50" height="50" relative="1" as="geometry">
            <mxPoint x="840" y="561.066670735677" as="sourcePoint" />
            <mxPoint x="840" y="521.066670735677" as="targetPoint" />
          </mxGeometry>
        </mxCell>
        <mxCell id="XHYVnQxGwRJhsAwLVEOP-138" value="" style="endArrow=none;html=1;rounded=0;" parent="1" edge="1">
          <mxGeometry width="50" height="50" relative="1" as="geometry">
            <mxPoint x="800" y="521.066670735677" as="sourcePoint" />
            <mxPoint x="840" y="521.066670735677" as="targetPoint" />
          </mxGeometry>
        </mxCell>
        <mxCell id="XHYVnQxGwRJhsAwLVEOP-139" value="" style="endArrow=none;html=1;rounded=0;" parent="1" edge="1">
          <mxGeometry width="50" height="50" relative="1" as="geometry">
            <mxPoint x="840" y="561.066670735677" as="sourcePoint" />
            <mxPoint x="920" y="561.066670735677" as="targetPoint" />
          </mxGeometry>
        </mxCell>
        <mxCell id="XHYVnQxGwRJhsAwLVEOP-140" value="" style="endArrow=none;html=1;rounded=0;" parent="1" edge="1">
          <mxGeometry width="50" height="50" relative="1" as="geometry">
            <mxPoint x="920" y="561.066670735677" as="sourcePoint" />
            <mxPoint x="920" y="521.066670735677" as="targetPoint" />
          </mxGeometry>
        </mxCell>
        <mxCell id="XHYVnQxGwRJhsAwLVEOP-141" value="" style="endArrow=none;html=1;rounded=0;" parent="1" edge="1">
          <mxGeometry width="50" height="50" relative="1" as="geometry">
            <mxPoint x="960" y="561.066670735677" as="sourcePoint" />
            <mxPoint x="960" y="521.066670735677" as="targetPoint" />
          </mxGeometry>
        </mxCell>
        <mxCell id="XHYVnQxGwRJhsAwLVEOP-142" value="" style="endArrow=none;html=1;rounded=0;" parent="1" edge="1">
          <mxGeometry width="50" height="50" relative="1" as="geometry">
            <mxPoint x="920" y="521.066670735677" as="sourcePoint" />
            <mxPoint x="960" y="521.066670735677" as="targetPoint" />
          </mxGeometry>
        </mxCell>
        <mxCell id="XHYVnQxGwRJhsAwLVEOP-143" value="" style="endArrow=none;html=1;rounded=0;" parent="1" edge="1">
          <mxGeometry width="50" height="50" relative="1" as="geometry">
            <mxPoint x="960" y="561.066670735677" as="sourcePoint" />
            <mxPoint x="1040" y="561.066670735677" as="targetPoint" />
          </mxGeometry>
        </mxCell>
        <mxCell id="XHYVnQxGwRJhsAwLVEOP-144" value="" style="endArrow=none;html=1;rounded=0;" parent="1" edge="1">
          <mxGeometry width="50" height="50" relative="1" as="geometry">
            <mxPoint x="360" y="501.07" as="sourcePoint" />
            <mxPoint x="400" y="501.07" as="targetPoint" />
          </mxGeometry>
        </mxCell>
        <mxCell id="XHYVnQxGwRJhsAwLVEOP-145" value="" style="endArrow=none;html=1;rounded=0;" parent="1" edge="1">
          <mxGeometry width="50" height="50" relative="1" as="geometry">
            <mxPoint x="360" y="561.07" as="sourcePoint" />
            <mxPoint x="400" y="561.07" as="targetPoint" />
          </mxGeometry>
        </mxCell>
        <mxCell id="XHYVnQxGwRJhsAwLVEOP-146" value="" style="endArrow=none;html=1;rounded=0;" parent="1" edge="1">
          <mxGeometry width="50" height="50" relative="1" as="geometry">
            <mxPoint x="400" y="681.0699999999999" as="sourcePoint" />
            <mxPoint x="400" y="641.0699999999999" as="targetPoint" />
          </mxGeometry>
        </mxCell>
        <mxCell id="XHYVnQxGwRJhsAwLVEOP-147" value="" style="endArrow=none;html=1;rounded=0;" parent="1" edge="1">
          <mxGeometry width="50" height="50" relative="1" as="geometry">
            <mxPoint x="440" y="681.0699999999999" as="sourcePoint" />
            <mxPoint x="440" y="641.0699999999999" as="targetPoint" />
          </mxGeometry>
        </mxCell>
        <mxCell id="XHYVnQxGwRJhsAwLVEOP-148" value="" style="endArrow=none;html=1;rounded=0;" parent="1" edge="1">
          <mxGeometry width="50" height="50" relative="1" as="geometry">
            <mxPoint x="400" y="641.0699999999999" as="sourcePoint" />
            <mxPoint x="440" y="641.0699999999999" as="targetPoint" />
          </mxGeometry>
        </mxCell>
        <mxCell id="XHYVnQxGwRJhsAwLVEOP-149" value="" style="endArrow=none;html=1;rounded=0;" parent="1" edge="1">
          <mxGeometry width="50" height="50" relative="1" as="geometry">
            <mxPoint x="440" y="681.0699999999999" as="sourcePoint" />
            <mxPoint x="480" y="681.0699999999999" as="targetPoint" />
          </mxGeometry>
        </mxCell>
        <mxCell id="XHYVnQxGwRJhsAwLVEOP-150" value="" style="endArrow=none;html=1;rounded=0;" parent="1" edge="1">
          <mxGeometry width="50" height="50" relative="1" as="geometry">
            <mxPoint x="400" y="620.38" as="sourcePoint" />
            <mxPoint x="400" y="580.38" as="targetPoint" />
          </mxGeometry>
        </mxCell>
        <mxCell id="XHYVnQxGwRJhsAwLVEOP-151" value="" style="endArrow=none;html=1;rounded=0;" parent="1" edge="1">
          <mxGeometry width="50" height="50" relative="1" as="geometry">
            <mxPoint x="440" y="620.38" as="sourcePoint" />
            <mxPoint x="440" y="580.38" as="targetPoint" />
          </mxGeometry>
        </mxCell>
        <mxCell id="XHYVnQxGwRJhsAwLVEOP-152" value="" style="endArrow=none;html=1;rounded=0;" parent="1" edge="1">
          <mxGeometry width="50" height="50" relative="1" as="geometry">
            <mxPoint x="400" y="580.38" as="sourcePoint" />
            <mxPoint x="440" y="580.38" as="targetPoint" />
          </mxGeometry>
        </mxCell>
        <mxCell id="XHYVnQxGwRJhsAwLVEOP-153" value="" style="endArrow=none;html=1;rounded=0;" parent="1" edge="1">
          <mxGeometry width="50" height="50" relative="1" as="geometry">
            <mxPoint x="440" y="620.38" as="sourcePoint" />
            <mxPoint x="520" y="620" as="targetPoint" />
          </mxGeometry>
        </mxCell>
        <mxCell id="XHYVnQxGwRJhsAwLVEOP-154" value="" style="endArrow=none;html=1;rounded=0;" parent="1" edge="1">
          <mxGeometry width="50" height="50" relative="1" as="geometry">
            <mxPoint x="520" y="620.38" as="sourcePoint" />
            <mxPoint x="520" y="580.38" as="targetPoint" />
          </mxGeometry>
        </mxCell>
        <mxCell id="XHYVnQxGwRJhsAwLVEOP-155" value="" style="endArrow=none;html=1;rounded=0;" parent="1" edge="1">
          <mxGeometry width="50" height="50" relative="1" as="geometry">
            <mxPoint x="560" y="620.38" as="sourcePoint" />
            <mxPoint x="560" y="580.38" as="targetPoint" />
          </mxGeometry>
        </mxCell>
        <mxCell id="XHYVnQxGwRJhsAwLVEOP-156" value="" style="endArrow=none;html=1;rounded=0;" parent="1" edge="1">
          <mxGeometry width="50" height="50" relative="1" as="geometry">
            <mxPoint x="520" y="580.38" as="sourcePoint" />
            <mxPoint x="560" y="580.38" as="targetPoint" />
          </mxGeometry>
        </mxCell>
        <mxCell id="XHYVnQxGwRJhsAwLVEOP-157" value="" style="endArrow=none;html=1;rounded=0;" parent="1" edge="1">
          <mxGeometry width="50" height="50" relative="1" as="geometry">
            <mxPoint x="560" y="620.38" as="sourcePoint" />
            <mxPoint x="600" y="620.38" as="targetPoint" />
          </mxGeometry>
        </mxCell>
        <mxCell id="XHYVnQxGwRJhsAwLVEOP-158" value="" style="endArrow=none;html=1;rounded=0;" parent="1" edge="1">
          <mxGeometry width="50" height="50" relative="1" as="geometry">
            <mxPoint x="600" y="620.38" as="sourcePoint" />
            <mxPoint x="600" y="580.38" as="targetPoint" />
          </mxGeometry>
        </mxCell>
        <mxCell id="XHYVnQxGwRJhsAwLVEOP-159" value="" style="endArrow=none;html=1;rounded=0;" parent="1" edge="1">
          <mxGeometry width="50" height="50" relative="1" as="geometry">
            <mxPoint x="640" y="620.38" as="sourcePoint" />
            <mxPoint x="640" y="580.38" as="targetPoint" />
          </mxGeometry>
        </mxCell>
        <mxCell id="XHYVnQxGwRJhsAwLVEOP-160" value="" style="endArrow=none;html=1;rounded=0;" parent="1" edge="1">
          <mxGeometry width="50" height="50" relative="1" as="geometry">
            <mxPoint x="600" y="580.38" as="sourcePoint" />
            <mxPoint x="640" y="580.38" as="targetPoint" />
          </mxGeometry>
        </mxCell>
        <mxCell id="XHYVnQxGwRJhsAwLVEOP-161" value="" style="endArrow=none;html=1;rounded=0;" parent="1" edge="1">
          <mxGeometry width="50" height="50" relative="1" as="geometry">
            <mxPoint x="640" y="620.38" as="sourcePoint" />
            <mxPoint x="720" y="620" as="targetPoint" />
          </mxGeometry>
        </mxCell>
        <mxCell id="XHYVnQxGwRJhsAwLVEOP-162" value="" style="endArrow=none;html=1;rounded=0;" parent="1" edge="1">
          <mxGeometry width="50" height="50" relative="1" as="geometry">
            <mxPoint x="720" y="620.38" as="sourcePoint" />
            <mxPoint x="720" y="580.38" as="targetPoint" />
          </mxGeometry>
        </mxCell>
        <mxCell id="XHYVnQxGwRJhsAwLVEOP-163" value="" style="endArrow=none;html=1;rounded=0;" parent="1" edge="1">
          <mxGeometry width="50" height="50" relative="1" as="geometry">
            <mxPoint x="760" y="620.38" as="sourcePoint" />
            <mxPoint x="760" y="580.38" as="targetPoint" />
          </mxGeometry>
        </mxCell>
        <mxCell id="XHYVnQxGwRJhsAwLVEOP-164" value="" style="endArrow=none;html=1;rounded=0;" parent="1" edge="1">
          <mxGeometry width="50" height="50" relative="1" as="geometry">
            <mxPoint x="720" y="580.38" as="sourcePoint" />
            <mxPoint x="760" y="580.38" as="targetPoint" />
          </mxGeometry>
        </mxCell>
        <mxCell id="XHYVnQxGwRJhsAwLVEOP-165" value="" style="endArrow=none;html=1;rounded=0;" parent="1" edge="1">
          <mxGeometry width="50" height="50" relative="1" as="geometry">
            <mxPoint x="760" y="620.38" as="sourcePoint" />
            <mxPoint x="840" y="620" as="targetPoint" />
          </mxGeometry>
        </mxCell>
        <mxCell id="XHYVnQxGwRJhsAwLVEOP-166" value="" style="endArrow=none;html=1;rounded=0;" parent="1" edge="1">
          <mxGeometry width="50" height="50" relative="1" as="geometry">
            <mxPoint x="840" y="620.38" as="sourcePoint" />
            <mxPoint x="840" y="580.38" as="targetPoint" />
          </mxGeometry>
        </mxCell>
        <mxCell id="XHYVnQxGwRJhsAwLVEOP-167" value="" style="endArrow=none;html=1;rounded=0;" parent="1" edge="1">
          <mxGeometry width="50" height="50" relative="1" as="geometry">
            <mxPoint x="880" y="620.38" as="sourcePoint" />
            <mxPoint x="880" y="580.38" as="targetPoint" />
          </mxGeometry>
        </mxCell>
        <mxCell id="XHYVnQxGwRJhsAwLVEOP-168" value="" style="endArrow=none;html=1;rounded=0;" parent="1" edge="1">
          <mxGeometry width="50" height="50" relative="1" as="geometry">
            <mxPoint x="840" y="580.38" as="sourcePoint" />
            <mxPoint x="880" y="580.38" as="targetPoint" />
          </mxGeometry>
        </mxCell>
        <mxCell id="XHYVnQxGwRJhsAwLVEOP-169" value="" style="endArrow=none;html=1;rounded=0;" parent="1" edge="1">
          <mxGeometry width="50" height="50" relative="1" as="geometry">
            <mxPoint x="880" y="620.38" as="sourcePoint" />
            <mxPoint x="920" y="620.38" as="targetPoint" />
          </mxGeometry>
        </mxCell>
        <mxCell id="XHYVnQxGwRJhsAwLVEOP-170" value="" style="endArrow=none;html=1;rounded=0;" parent="1" edge="1">
          <mxGeometry width="50" height="50" relative="1" as="geometry">
            <mxPoint x="920" y="620.38" as="sourcePoint" />
            <mxPoint x="920" y="580.38" as="targetPoint" />
          </mxGeometry>
        </mxCell>
        <mxCell id="XHYVnQxGwRJhsAwLVEOP-171" value="" style="endArrow=none;html=1;rounded=0;" parent="1" edge="1">
          <mxGeometry width="50" height="50" relative="1" as="geometry">
            <mxPoint x="960" y="620.38" as="sourcePoint" />
            <mxPoint x="960" y="580.38" as="targetPoint" />
          </mxGeometry>
        </mxCell>
        <mxCell id="XHYVnQxGwRJhsAwLVEOP-172" value="" style="endArrow=none;html=1;rounded=0;" parent="1" edge="1">
          <mxGeometry width="50" height="50" relative="1" as="geometry">
            <mxPoint x="920" y="580.38" as="sourcePoint" />
            <mxPoint x="960" y="580.38" as="targetPoint" />
          </mxGeometry>
        </mxCell>
        <mxCell id="XHYVnQxGwRJhsAwLVEOP-173" value="" style="endArrow=none;html=1;rounded=0;" parent="1" edge="1">
          <mxGeometry width="50" height="50" relative="1" as="geometry">
            <mxPoint x="960" y="620.38" as="sourcePoint" />
            <mxPoint x="1040" y="620" as="targetPoint" />
          </mxGeometry>
        </mxCell>
        <mxCell id="XHYVnQxGwRJhsAwLVEOP-174" value="" style="endArrow=none;html=1;rounded=0;" parent="1" edge="1">
          <mxGeometry width="50" height="50" relative="1" as="geometry">
            <mxPoint x="360" y="621.07" as="sourcePoint" />
            <mxPoint x="400" y="621.07" as="targetPoint" />
          </mxGeometry>
        </mxCell>
        <mxCell id="XHYVnQxGwRJhsAwLVEOP-175" value="" style="endArrow=none;html=1;rounded=0;" parent="1" edge="1">
          <mxGeometry width="50" height="50" relative="1" as="geometry">
            <mxPoint x="480" y="680.72" as="sourcePoint" />
            <mxPoint x="480" y="640.72" as="targetPoint" />
          </mxGeometry>
        </mxCell>
        <mxCell id="XHYVnQxGwRJhsAwLVEOP-177" value="" style="endArrow=none;html=1;rounded=0;" parent="1" edge="1">
          <mxGeometry width="50" height="50" relative="1" as="geometry">
            <mxPoint x="480" y="640.72" as="sourcePoint" />
            <mxPoint x="560" y="641" as="targetPoint" />
          </mxGeometry>
        </mxCell>
        <mxCell id="XHYVnQxGwRJhsAwLVEOP-179" value="" style="endArrow=none;html=1;rounded=0;" parent="1" edge="1">
          <mxGeometry width="50" height="50" relative="1" as="geometry">
            <mxPoint x="600" y="681.07" as="sourcePoint" />
            <mxPoint x="600" y="641.07" as="targetPoint" />
          </mxGeometry>
        </mxCell>
        <mxCell id="XHYVnQxGwRJhsAwLVEOP-180" value="" style="endArrow=none;html=1;rounded=0;" parent="1" edge="1">
          <mxGeometry width="50" height="50" relative="1" as="geometry">
            <mxPoint x="640" y="681.07" as="sourcePoint" />
            <mxPoint x="640" y="641.07" as="targetPoint" />
          </mxGeometry>
        </mxCell>
        <mxCell id="XHYVnQxGwRJhsAwLVEOP-181" value="" style="endArrow=none;html=1;rounded=0;" parent="1" edge="1">
          <mxGeometry width="50" height="50" relative="1" as="geometry">
            <mxPoint x="600" y="641.07" as="sourcePoint" />
            <mxPoint x="640" y="641.07" as="targetPoint" />
          </mxGeometry>
        </mxCell>
        <mxCell id="XHYVnQxGwRJhsAwLVEOP-182" value="" style="endArrow=none;html=1;rounded=0;" parent="1" edge="1">
          <mxGeometry width="50" height="50" relative="1" as="geometry">
            <mxPoint x="640" y="681.07" as="sourcePoint" />
            <mxPoint x="680" y="681.07" as="targetPoint" />
          </mxGeometry>
        </mxCell>
        <mxCell id="XHYVnQxGwRJhsAwLVEOP-183" value="" style="endArrow=none;html=1;rounded=0;" parent="1" edge="1">
          <mxGeometry width="50" height="50" relative="1" as="geometry">
            <mxPoint x="560" y="681.07" as="sourcePoint" />
            <mxPoint x="600" y="681.07" as="targetPoint" />
          </mxGeometry>
        </mxCell>
        <mxCell id="XHYVnQxGwRJhsAwLVEOP-184" value="" style="endArrow=none;html=1;rounded=0;" parent="1" edge="1">
          <mxGeometry width="50" height="50" relative="1" as="geometry">
            <mxPoint x="560" y="681.07" as="sourcePoint" />
            <mxPoint x="560" y="641.07" as="targetPoint" />
          </mxGeometry>
        </mxCell>
        <mxCell id="XHYVnQxGwRJhsAwLVEOP-185" value="" style="endArrow=none;html=1;rounded=0;" parent="1" edge="1">
          <mxGeometry width="50" height="50" relative="1" as="geometry">
            <mxPoint x="680" y="680.72" as="sourcePoint" />
            <mxPoint x="680" y="640.72" as="targetPoint" />
          </mxGeometry>
        </mxCell>
        <mxCell id="XHYVnQxGwRJhsAwLVEOP-186" value="" style="endArrow=none;html=1;rounded=0;" parent="1" edge="1">
          <mxGeometry width="50" height="50" relative="1" as="geometry">
            <mxPoint x="680" y="640.72" as="sourcePoint" />
            <mxPoint x="760" y="641" as="targetPoint" />
          </mxGeometry>
        </mxCell>
        <mxCell id="XHYVnQxGwRJhsAwLVEOP-187" value="" style="endArrow=none;html=1;rounded=0;" parent="1" edge="1">
          <mxGeometry width="50" height="50" relative="1" as="geometry">
            <mxPoint x="760" y="681.07" as="sourcePoint" />
            <mxPoint x="760" y="641.07" as="targetPoint" />
          </mxGeometry>
        </mxCell>
        <mxCell id="XHYVnQxGwRJhsAwLVEOP-188" value="" style="endArrow=none;html=1;rounded=0;" parent="1" edge="1">
          <mxGeometry width="50" height="50" relative="1" as="geometry">
            <mxPoint x="760" y="681.07" as="sourcePoint" />
            <mxPoint x="800" y="681.07" as="targetPoint" />
          </mxGeometry>
        </mxCell>
        <mxCell id="XHYVnQxGwRJhsAwLVEOP-189" value="" style="endArrow=none;html=1;rounded=0;" parent="1" edge="1">
          <mxGeometry width="50" height="50" relative="1" as="geometry">
            <mxPoint x="800" y="681.0699999999999" as="sourcePoint" />
            <mxPoint x="800" y="641.0699999999999" as="targetPoint" />
          </mxGeometry>
        </mxCell>
        <mxCell id="XHYVnQxGwRJhsAwLVEOP-190" value="" style="endArrow=none;html=1;rounded=0;" parent="1" edge="1">
          <mxGeometry width="50" height="50" relative="1" as="geometry">
            <mxPoint x="800" y="641.0699999999999" as="sourcePoint" />
            <mxPoint x="880" y="641.3499999999999" as="targetPoint" />
          </mxGeometry>
        </mxCell>
        <mxCell id="XHYVnQxGwRJhsAwLVEOP-191" value="" style="endArrow=none;html=1;rounded=0;" parent="1" edge="1">
          <mxGeometry width="50" height="50" relative="1" as="geometry">
            <mxPoint x="920" y="681.4200000000001" as="sourcePoint" />
            <mxPoint x="920" y="641.4200000000001" as="targetPoint" />
          </mxGeometry>
        </mxCell>
        <mxCell id="XHYVnQxGwRJhsAwLVEOP-192" value="" style="endArrow=none;html=1;rounded=0;" parent="1" edge="1">
          <mxGeometry width="50" height="50" relative="1" as="geometry">
            <mxPoint x="960" y="681.4200000000001" as="sourcePoint" />
            <mxPoint x="960" y="641.4200000000001" as="targetPoint" />
          </mxGeometry>
        </mxCell>
        <mxCell id="XHYVnQxGwRJhsAwLVEOP-193" value="" style="endArrow=none;html=1;rounded=0;" parent="1" edge="1">
          <mxGeometry width="50" height="50" relative="1" as="geometry">
            <mxPoint x="920" y="641.4200000000001" as="sourcePoint" />
            <mxPoint x="960" y="641.4200000000001" as="targetPoint" />
          </mxGeometry>
        </mxCell>
        <mxCell id="XHYVnQxGwRJhsAwLVEOP-194" value="" style="endArrow=none;html=1;rounded=0;" parent="1" edge="1">
          <mxGeometry width="50" height="50" relative="1" as="geometry">
            <mxPoint x="880" y="681.4200000000001" as="sourcePoint" />
            <mxPoint x="920" y="681.4200000000001" as="targetPoint" />
          </mxGeometry>
        </mxCell>
        <mxCell id="XHYVnQxGwRJhsAwLVEOP-195" value="" style="endArrow=none;html=1;rounded=0;" parent="1" edge="1">
          <mxGeometry width="50" height="50" relative="1" as="geometry">
            <mxPoint x="880" y="681.4200000000001" as="sourcePoint" />
            <mxPoint x="880" y="641.4200000000001" as="targetPoint" />
          </mxGeometry>
        </mxCell>
        <mxCell id="XHYVnQxGwRJhsAwLVEOP-196" value="" style="endArrow=none;html=1;rounded=0;" parent="1" edge="1">
          <mxGeometry width="50" height="50" relative="1" as="geometry">
            <mxPoint x="960" y="681.07" as="sourcePoint" />
            <mxPoint x="1000" y="681.07" as="targetPoint" />
          </mxGeometry>
        </mxCell>
        <mxCell id="XHYVnQxGwRJhsAwLVEOP-197" value="" style="endArrow=none;html=1;rounded=0;" parent="1" edge="1">
          <mxGeometry width="50" height="50" relative="1" as="geometry">
            <mxPoint x="1000" y="681.07" as="sourcePoint" />
            <mxPoint x="1000" y="641.07" as="targetPoint" />
          </mxGeometry>
        </mxCell>
        <mxCell id="XHYVnQxGwRJhsAwLVEOP-198" value="" style="endArrow=none;html=1;rounded=0;" parent="1" edge="1">
          <mxGeometry width="50" height="50" relative="1" as="geometry">
            <mxPoint x="1000" y="641.07" as="sourcePoint" />
            <mxPoint x="1040" y="641.07" as="targetPoint" />
          </mxGeometry>
        </mxCell>
        <mxCell id="XHYVnQxGwRJhsAwLVEOP-199" value="" style="endArrow=none;html=1;rounded=0;" parent="1" edge="1">
          <mxGeometry width="50" height="50" relative="1" as="geometry">
            <mxPoint x="360" y="681.07" as="sourcePoint" />
            <mxPoint x="400" y="681.07" as="targetPoint" />
          </mxGeometry>
        </mxCell>
        <mxCell id="XHYVnQxGwRJhsAwLVEOP-200" value="1" style="text;html=1;align=center;verticalAlign=middle;whiteSpace=wrap;rounded=0;" parent="1" vertex="1">
          <mxGeometry x="400" y="641.0699999999999" width="40" height="40" as="geometry" />
        </mxCell>
        <mxCell id="XHYVnQxGwRJhsAwLVEOP-201" value="2" style="text;html=1;align=center;verticalAlign=middle;whiteSpace=wrap;rounded=0;" parent="1" vertex="1">
          <mxGeometry x="480" y="641.07" width="40" height="40" as="geometry" />
        </mxCell>
        <mxCell id="XHYVnQxGwRJhsAwLVEOP-202" value="3" style="text;html=1;align=center;verticalAlign=middle;whiteSpace=wrap;rounded=0;" parent="1" vertex="1">
          <mxGeometry x="520" y="641.0699999999999" width="40" height="40" as="geometry" />
        </mxCell>
        <mxCell id="XHYVnQxGwRJhsAwLVEOP-203" value="4" style="text;html=1;align=center;verticalAlign=middle;whiteSpace=wrap;rounded=0;" parent="1" vertex="1">
          <mxGeometry x="600" y="641.0699999999999" width="40" height="40" as="geometry" />
        </mxCell>
        <mxCell id="XHYVnQxGwRJhsAwLVEOP-204" value="5" style="text;html=1;align=center;verticalAlign=middle;whiteSpace=wrap;rounded=0;" parent="1" vertex="1">
          <mxGeometry x="680" y="641.07" width="40" height="40" as="geometry" />
        </mxCell>
        <mxCell id="XHYVnQxGwRJhsAwLVEOP-205" value="6" style="text;html=1;align=center;verticalAlign=middle;whiteSpace=wrap;rounded=0;" parent="1" vertex="1">
          <mxGeometry x="720" y="641.07" width="40" height="40" as="geometry" />
        </mxCell>
        <mxCell id="XHYVnQxGwRJhsAwLVEOP-206" value="7" style="text;html=1;align=center;verticalAlign=middle;whiteSpace=wrap;rounded=0;" parent="1" vertex="1">
          <mxGeometry x="800" y="641.0699999999999" width="40" height="40" as="geometry" />
        </mxCell>
        <mxCell id="XHYVnQxGwRJhsAwLVEOP-207" value="8" style="text;html=1;align=center;verticalAlign=middle;whiteSpace=wrap;rounded=0;" parent="1" vertex="1">
          <mxGeometry x="840" y="641.0699999999999" width="40" height="40" as="geometry" />
        </mxCell>
        <mxCell id="XHYVnQxGwRJhsAwLVEOP-208" value="9" style="text;html=1;align=center;verticalAlign=middle;whiteSpace=wrap;rounded=0;" parent="1" vertex="1">
          <mxGeometry x="920" y="641.0699999999999" width="40" height="40" as="geometry" />
        </mxCell>
        <mxCell id="XHYVnQxGwRJhsAwLVEOP-209" value="10" style="text;html=1;align=center;verticalAlign=middle;whiteSpace=wrap;rounded=0;" parent="1" vertex="1">
          <mxGeometry x="1000" y="641.0699999999999" width="40" height="40" as="geometry" />
        </mxCell>
        <mxCell id="XHYVnQxGwRJhsAwLVEOP-210" value="" style="endArrow=none;html=1;rounded=0;" parent="1" edge="1">
          <mxGeometry width="50" height="50" relative="1" as="geometry">
            <mxPoint x="360" y="741.07" as="sourcePoint" />
            <mxPoint x="400" y="741.07" as="targetPoint" />
          </mxGeometry>
        </mxCell>
        <mxCell id="XHYVnQxGwRJhsAwLVEOP-212" value="..." style="text;html=1;align=center;verticalAlign=middle;whiteSpace=wrap;rounded=0;" parent="1" vertex="1">
          <mxGeometry x="320" y="620" width="40" height="40" as="geometry" />
        </mxCell>
        <mxCell id="XHYVnQxGwRJhsAwLVEOP-213" value="..." style="text;html=1;align=center;verticalAlign=middle;whiteSpace=wrap;rounded=0;" parent="1" vertex="1">
          <mxGeometry x="320" y="380" width="40" height="40" as="geometry" />
        </mxCell>
        <mxCell id="XHYVnQxGwRJhsAwLVEOP-233" value="" style="endArrow=none;html=1;rounded=0;" parent="1" edge="1">
          <mxGeometry width="50" height="50" relative="1" as="geometry">
            <mxPoint x="400" y="740.03" as="sourcePoint" />
            <mxPoint x="400" y="700.03" as="targetPoint" />
          </mxGeometry>
        </mxCell>
        <mxCell id="XHYVnQxGwRJhsAwLVEOP-234" value="" style="endArrow=none;html=1;rounded=0;" parent="1" edge="1">
          <mxGeometry width="50" height="50" relative="1" as="geometry">
            <mxPoint x="419.66" y="740.03" as="sourcePoint" />
            <mxPoint x="419.66" y="700.03" as="targetPoint" />
          </mxGeometry>
        </mxCell>
        <mxCell id="XHYVnQxGwRJhsAwLVEOP-235" value="" style="endArrow=none;html=1;rounded=0;" parent="1" edge="1">
          <mxGeometry width="50" height="50" relative="1" as="geometry">
            <mxPoint x="400" y="700.03" as="sourcePoint" />
            <mxPoint x="420" y="699.6800000000001" as="targetPoint" />
          </mxGeometry>
        </mxCell>
        <mxCell id="XHYVnQxGwRJhsAwLVEOP-236" value="" style="endArrow=none;html=1;rounded=0;" parent="1" edge="1">
          <mxGeometry width="50" height="50" relative="1" as="geometry">
            <mxPoint x="420" y="739.6800000000001" as="sourcePoint" />
            <mxPoint x="480" y="740.03" as="targetPoint" />
          </mxGeometry>
        </mxCell>
        <mxCell id="XHYVnQxGwRJhsAwLVEOP-242" value="" style="endArrow=none;html=1;rounded=0;" parent="1" edge="1">
          <mxGeometry width="50" height="50" relative="1" as="geometry">
            <mxPoint x="620" y="739.6800000000001" as="sourcePoint" />
            <mxPoint x="680" y="740.03" as="targetPoint" />
          </mxGeometry>
        </mxCell>
        <mxCell id="XHYVnQxGwRJhsAwLVEOP-243" value="" style="endArrow=none;html=1;rounded=0;" parent="1" edge="1">
          <mxGeometry width="50" height="50" relative="1" as="geometry">
            <mxPoint x="540" y="740.03" as="sourcePoint" />
            <mxPoint x="600" y="739.6800000000001" as="targetPoint" />
          </mxGeometry>
        </mxCell>
        <mxCell id="XHYVnQxGwRJhsAwLVEOP-248" value="" style="endArrow=none;html=1;rounded=0;" parent="1" edge="1">
          <mxGeometry width="50" height="50" relative="1" as="geometry">
            <mxPoint x="740" y="739.6800000000001" as="sourcePoint" />
            <mxPoint x="800" y="740.03" as="targetPoint" />
          </mxGeometry>
        </mxCell>
        <mxCell id="XHYVnQxGwRJhsAwLVEOP-251" value="" style="endArrow=none;html=1;rounded=0;" parent="1" edge="1">
          <mxGeometry width="50" height="50" relative="1" as="geometry">
            <mxPoint x="920" y="740.3800000000001" as="sourcePoint" />
            <mxPoint x="920" y="700.3800000000001" as="targetPoint" />
          </mxGeometry>
        </mxCell>
        <mxCell id="XHYVnQxGwRJhsAwLVEOP-252" value="" style="endArrow=none;html=1;rounded=0;" parent="1" edge="1">
          <mxGeometry width="50" height="50" relative="1" as="geometry">
            <mxPoint x="939.8" y="740.3800000000001" as="sourcePoint" />
            <mxPoint x="939.8" y="700.3800000000001" as="targetPoint" />
          </mxGeometry>
        </mxCell>
        <mxCell id="XHYVnQxGwRJhsAwLVEOP-253" value="" style="endArrow=none;html=1;rounded=0;" parent="1" edge="1">
          <mxGeometry width="50" height="50" relative="1" as="geometry">
            <mxPoint x="920" y="700.3800000000001" as="sourcePoint" />
            <mxPoint x="940" y="700.6800000000001" as="targetPoint" />
          </mxGeometry>
        </mxCell>
        <mxCell id="XHYVnQxGwRJhsAwLVEOP-254" value="" style="endArrow=none;html=1;rounded=0;" parent="1" edge="1">
          <mxGeometry width="50" height="50" relative="1" as="geometry">
            <mxPoint x="860" y="740.6800000000001" as="sourcePoint" />
            <mxPoint x="920" y="740.3800000000001" as="targetPoint" />
          </mxGeometry>
        </mxCell>
        <mxCell id="XHYVnQxGwRJhsAwLVEOP-256" value="" style="endArrow=none;html=1;rounded=0;" parent="1" edge="1">
          <mxGeometry width="50" height="50" relative="1" as="geometry">
            <mxPoint x="940" y="739.6800000000001" as="sourcePoint" />
            <mxPoint x="1000" y="740.03" as="targetPoint" />
          </mxGeometry>
        </mxCell>
        <mxCell id="XHYVnQxGwRJhsAwLVEOP-257" value="" style="endArrow=none;html=1;rounded=0;" parent="1" edge="1">
          <mxGeometry width="50" height="50" relative="1" as="geometry">
            <mxPoint x="1000" y="740.03" as="sourcePoint" />
            <mxPoint x="1000" y="700.03" as="targetPoint" />
          </mxGeometry>
        </mxCell>
        <mxCell id="XHYVnQxGwRJhsAwLVEOP-258" value="" style="endArrow=none;html=1;rounded=0;" parent="1" edge="1">
          <mxGeometry width="50" height="50" relative="1" as="geometry">
            <mxPoint x="1000" y="700.03" as="sourcePoint" />
            <mxPoint x="1020" y="699.6800000000001" as="targetPoint" />
          </mxGeometry>
        </mxCell>
        <mxCell id="XHYVnQxGwRJhsAwLVEOP-269" value="" style="endArrow=none;html=1;rounded=0;" parent="1" edge="1">
          <mxGeometry width="50" height="50" relative="1" as="geometry">
            <mxPoint x="480" y="740.03" as="sourcePoint" />
            <mxPoint x="480" y="700.03" as="targetPoint" />
          </mxGeometry>
        </mxCell>
        <mxCell id="XHYVnQxGwRJhsAwLVEOP-270" value="" style="endArrow=none;html=1;rounded=0;" parent="1" edge="1">
          <mxGeometry width="50" height="50" relative="1" as="geometry">
            <mxPoint x="499.6600000000001" y="740.03" as="sourcePoint" />
            <mxPoint x="499.6600000000001" y="700.03" as="targetPoint" />
          </mxGeometry>
        </mxCell>
        <mxCell id="XHYVnQxGwRJhsAwLVEOP-271" value="" style="endArrow=none;html=1;rounded=0;" parent="1" edge="1">
          <mxGeometry width="50" height="50" relative="1" as="geometry">
            <mxPoint x="480" y="700.03" as="sourcePoint" />
            <mxPoint x="500" y="699.6800000000001" as="targetPoint" />
          </mxGeometry>
        </mxCell>
        <mxCell id="XHYVnQxGwRJhsAwLVEOP-272" value="" style="endArrow=none;html=1;rounded=0;" parent="1" edge="1">
          <mxGeometry width="50" height="50" relative="1" as="geometry">
            <mxPoint x="520" y="740.03" as="sourcePoint" />
            <mxPoint x="520" y="700.03" as="targetPoint" />
          </mxGeometry>
        </mxCell>
        <mxCell id="XHYVnQxGwRJhsAwLVEOP-273" value="" style="endArrow=none;html=1;rounded=0;" parent="1" edge="1">
          <mxGeometry width="50" height="50" relative="1" as="geometry">
            <mxPoint x="539.6600000000001" y="740.03" as="sourcePoint" />
            <mxPoint x="539.6600000000001" y="700.03" as="targetPoint" />
          </mxGeometry>
        </mxCell>
        <mxCell id="XHYVnQxGwRJhsAwLVEOP-274" value="" style="endArrow=none;html=1;rounded=0;" parent="1" edge="1">
          <mxGeometry width="50" height="50" relative="1" as="geometry">
            <mxPoint x="520" y="700.03" as="sourcePoint" />
            <mxPoint x="540" y="699.6800000000001" as="targetPoint" />
          </mxGeometry>
        </mxCell>
        <mxCell id="XHYVnQxGwRJhsAwLVEOP-275" value="" style="endArrow=none;html=1;rounded=0;" parent="1" edge="1">
          <mxGeometry width="50" height="50" relative="1" as="geometry">
            <mxPoint x="500" y="739.6800000000001" as="sourcePoint" />
            <mxPoint x="520" y="739.6800000000001" as="targetPoint" />
          </mxGeometry>
        </mxCell>
        <mxCell id="XHYVnQxGwRJhsAwLVEOP-276" value="" style="endArrow=none;html=1;rounded=0;" parent="1" edge="1">
          <mxGeometry width="50" height="50" relative="1" as="geometry">
            <mxPoint x="600" y="740.03" as="sourcePoint" />
            <mxPoint x="600" y="700.03" as="targetPoint" />
          </mxGeometry>
        </mxCell>
        <mxCell id="XHYVnQxGwRJhsAwLVEOP-277" value="" style="endArrow=none;html=1;rounded=0;" parent="1" edge="1">
          <mxGeometry width="50" height="50" relative="1" as="geometry">
            <mxPoint x="619.6600000000001" y="740.03" as="sourcePoint" />
            <mxPoint x="619.6600000000001" y="700.03" as="targetPoint" />
          </mxGeometry>
        </mxCell>
        <mxCell id="XHYVnQxGwRJhsAwLVEOP-278" value="" style="endArrow=none;html=1;rounded=0;" parent="1" edge="1">
          <mxGeometry width="50" height="50" relative="1" as="geometry">
            <mxPoint x="600" y="700.03" as="sourcePoint" />
            <mxPoint x="620" y="699.6800000000001" as="targetPoint" />
          </mxGeometry>
        </mxCell>
        <mxCell id="XHYVnQxGwRJhsAwLVEOP-279" value="" style="endArrow=none;html=1;rounded=0;" parent="1" edge="1">
          <mxGeometry width="50" height="50" relative="1" as="geometry">
            <mxPoint x="680" y="740.03" as="sourcePoint" />
            <mxPoint x="680" y="700.03" as="targetPoint" />
          </mxGeometry>
        </mxCell>
        <mxCell id="XHYVnQxGwRJhsAwLVEOP-280" value="" style="endArrow=none;html=1;rounded=0;" parent="1" edge="1">
          <mxGeometry width="50" height="50" relative="1" as="geometry">
            <mxPoint x="699.6600000000001" y="740.03" as="sourcePoint" />
            <mxPoint x="699.6600000000001" y="700.03" as="targetPoint" />
          </mxGeometry>
        </mxCell>
        <mxCell id="XHYVnQxGwRJhsAwLVEOP-281" value="" style="endArrow=none;html=1;rounded=0;" parent="1" edge="1">
          <mxGeometry width="50" height="50" relative="1" as="geometry">
            <mxPoint x="680" y="700.03" as="sourcePoint" />
            <mxPoint x="700" y="699.6800000000001" as="targetPoint" />
          </mxGeometry>
        </mxCell>
        <mxCell id="XHYVnQxGwRJhsAwLVEOP-282" value="" style="endArrow=none;html=1;rounded=0;" parent="1" edge="1">
          <mxGeometry width="50" height="50" relative="1" as="geometry">
            <mxPoint x="720" y="740.03" as="sourcePoint" />
            <mxPoint x="720" y="700.03" as="targetPoint" />
          </mxGeometry>
        </mxCell>
        <mxCell id="XHYVnQxGwRJhsAwLVEOP-283" value="" style="endArrow=none;html=1;rounded=0;" parent="1" edge="1">
          <mxGeometry width="50" height="50" relative="1" as="geometry">
            <mxPoint x="739.6600000000001" y="740.03" as="sourcePoint" />
            <mxPoint x="739.6600000000001" y="700.03" as="targetPoint" />
          </mxGeometry>
        </mxCell>
        <mxCell id="XHYVnQxGwRJhsAwLVEOP-284" value="" style="endArrow=none;html=1;rounded=0;" parent="1" edge="1">
          <mxGeometry width="50" height="50" relative="1" as="geometry">
            <mxPoint x="720" y="700.03" as="sourcePoint" />
            <mxPoint x="740" y="699.6800000000001" as="targetPoint" />
          </mxGeometry>
        </mxCell>
        <mxCell id="XHYVnQxGwRJhsAwLVEOP-285" value="" style="endArrow=none;html=1;rounded=0;" parent="1" edge="1">
          <mxGeometry width="50" height="50" relative="1" as="geometry">
            <mxPoint x="700" y="739.6800000000001" as="sourcePoint" />
            <mxPoint x="720" y="739.6800000000001" as="targetPoint" />
          </mxGeometry>
        </mxCell>
        <mxCell id="XHYVnQxGwRJhsAwLVEOP-286" value="" style="endArrow=none;html=1;rounded=0;" parent="1" edge="1">
          <mxGeometry width="50" height="50" relative="1" as="geometry">
            <mxPoint x="800" y="740.03" as="sourcePoint" />
            <mxPoint x="800" y="700.03" as="targetPoint" />
          </mxGeometry>
        </mxCell>
        <mxCell id="XHYVnQxGwRJhsAwLVEOP-287" value="" style="endArrow=none;html=1;rounded=0;" parent="1" edge="1">
          <mxGeometry width="50" height="50" relative="1" as="geometry">
            <mxPoint x="819.6600000000001" y="740.03" as="sourcePoint" />
            <mxPoint x="819.6600000000001" y="700.03" as="targetPoint" />
          </mxGeometry>
        </mxCell>
        <mxCell id="XHYVnQxGwRJhsAwLVEOP-288" value="" style="endArrow=none;html=1;rounded=0;" parent="1" edge="1">
          <mxGeometry width="50" height="50" relative="1" as="geometry">
            <mxPoint x="800" y="700.03" as="sourcePoint" />
            <mxPoint x="820" y="699.6800000000001" as="targetPoint" />
          </mxGeometry>
        </mxCell>
        <mxCell id="XHYVnQxGwRJhsAwLVEOP-289" value="" style="endArrow=none;html=1;rounded=0;" parent="1" edge="1">
          <mxGeometry width="50" height="50" relative="1" as="geometry">
            <mxPoint x="840" y="740.03" as="sourcePoint" />
            <mxPoint x="840" y="700.03" as="targetPoint" />
          </mxGeometry>
        </mxCell>
        <mxCell id="XHYVnQxGwRJhsAwLVEOP-290" value="" style="endArrow=none;html=1;rounded=0;" parent="1" edge="1">
          <mxGeometry width="50" height="50" relative="1" as="geometry">
            <mxPoint x="859.6600000000001" y="740.03" as="sourcePoint" />
            <mxPoint x="859.6600000000001" y="700.03" as="targetPoint" />
          </mxGeometry>
        </mxCell>
        <mxCell id="XHYVnQxGwRJhsAwLVEOP-291" value="" style="endArrow=none;html=1;rounded=0;" parent="1" edge="1">
          <mxGeometry width="50" height="50" relative="1" as="geometry">
            <mxPoint x="840" y="700.03" as="sourcePoint" />
            <mxPoint x="860" y="699.6800000000001" as="targetPoint" />
          </mxGeometry>
        </mxCell>
        <mxCell id="XHYVnQxGwRJhsAwLVEOP-292" value="" style="endArrow=none;html=1;rounded=0;" parent="1" edge="1">
          <mxGeometry width="50" height="50" relative="1" as="geometry">
            <mxPoint x="820" y="739.6800000000001" as="sourcePoint" />
            <mxPoint x="840" y="739.6800000000001" as="targetPoint" />
          </mxGeometry>
        </mxCell>
        <mxCell id="XHYVnQxGwRJhsAwLVEOP-293" value="" style="endArrow=none;html=1;rounded=0;" parent="1" edge="1">
          <mxGeometry width="50" height="50" relative="1" as="geometry">
            <mxPoint x="1019.8" y="739.6800000000001" as="sourcePoint" />
            <mxPoint x="1019.8" y="699.6800000000001" as="targetPoint" />
          </mxGeometry>
        </mxCell>
        <mxCell id="XHYVnQxGwRJhsAwLVEOP-294" value="" style="endArrow=none;html=1;rounded=0;" parent="1" edge="1">
          <mxGeometry width="50" height="50" relative="1" as="geometry">
            <mxPoint x="1020" y="739.6800000000001" as="sourcePoint" />
            <mxPoint x="1040" y="739.6800000000001" as="targetPoint" />
          </mxGeometry>
        </mxCell>
      </root>
    </mxGraphModel>
  </diagram>
</mxfile>
